<?xml version="1.0" encoding="utf-8"?>
<!-- Generator: Adobe Illustrator 19.2.0, SVG Export Plug-In . SVG Version: 6.00 Build 0)  -->
<svg version="1.1" id="Calque_1" xmlns="http://www.w3.org/2000/svg" xmlns:xlink="http://www.w3.org/1999/xlink" x="0px" y="0px"
	 viewBox="0 0 792 768" style="enable-background:new 0 0 792 768;" xml:space="preserve">
<style type="text/css">
	.st0{fill:#E0E0E0;}
	.st1{fill:#3232CE;}
	.st2{fill:#FFFFFF;}
	.st3{clip-path:url(#SVGID_1_);fill:#E5E5E5;}
	.st4{fill:#1D9EFF;}
	.st5{fill:#085FF9;}
	.st6{fill:#5895FA;}
	.st7{fill:#0049A0;}
</style>
<g>
	<path d="M752.3,371.3l-22.7-54.5v0c-3.8-9-7.3-17.5-10.8-25.6l13.5-3l2.3-22.6c1.5-14.8,3-29.7,4.5-44.5l1.5-15l-10.7-10.6
		c-1.5-1.5-2.8-2.8-4.1-4.1l18.5-77.1L540.3,54.7c-48.6-14.2-98.7-21.3-148.8-21.3c-50.1,0-100.2,7.1-148.8,21.3L39.6,114.3
		l17.8,74.2c-1.4,1.1-2.8,2.3-4.3,3.5l-6.2,5.1l-0.8,8c-4.5,43.6-9.1,87.8-13.4,131.4l-2.6,26.3l26-5.1c14.5-2.8,29.1-5.5,43.7-8.1
		c22.9,62.2,57.7,119.5,102.7,168.7l189.6,207.3l7.9-8.6l181.4-198.2c43.2-47.2,77.1-102,100-161.4c3.9,0.7,7.9,1.5,13.1,2.5
		L752.3,371.3"/>
	<path class="st0" d="M752.3,371.3l17.1-7.1l-22.7-54.5l-17.1,7.1H748v0v-3.7l-1.4-3.4c-3.8-9.1-7.4-17.6-10.9-25.8l-17,7.2l4.1,18
		l26.5-6l3.6-35.8c1.5-14.8,3-29.7,4.5-44.5l2.4-23.8l-17-16.8c-1.5-1.5-2.9-2.8-4.2-4.1l-13,13.2l18,4.3l22.6-94.2L545.5,37
		c-50.3-14.7-102.1-22-153.9-22c-51.9,0-103.7,7.4-154,22.1L17.5,101.5l21.8,91.3l18-4.3l-11.7-14.3c-1.4,1.1-2.8,2.3-4.3,3.6l0,0
		l-12.1,9.9l-1.6,15.5c-4.5,43.6-9.1,87.8-13.5,131.5L9,385.8l50.4-9.9c14.4-2.8,28.9-5.5,43.4-8.1l-3.2-18.2L82.2,356
		C106,420.4,142,479.8,188.6,530.8L391.9,753l21.5-23.5l181.4-198.2c44.8-49,79.9-105.7,103.6-167.2l-17.2-6.7l-3.4,18.2
		c3.8,0.7,7.8,1.5,13,2.5l91.9,18.2l-13.3-32L752.3,371.3l3.6-18.1l-58-11.4c-5.2-1-9.3-1.8-13.2-2.6l-15.1-2.9l-5.6,14.4
		c-22.1,57.2-54.7,110.1-96.4,155.6L386.1,704.5l-7.9,8.6l13.6,12.5l13.6-12.5L215.9,505.8c-43.3-47.4-76.9-102.7-99-162.6
		l-5.3-14.5l-15.2,2.7c-14.7,2.6-29.4,5.3-44,8.2l-1.5,0.3l0.2-1.5c4.4-43.6,8.9-87.8,13.4-131.3l0-0.5l0.4-0.3l0,0
		c1.5-1.2,2.9-2.4,4.3-3.5l9-7.3l-16.4-68.4L248,72.5c46.9-13.7,95.2-20.6,143.6-20.6c48.3,0,96.7,6.8,143.6,20.5l187,54.6
		l-16.8,70.2l7.5,7.3c1.3,1.2,2.6,2.6,4.1,4l4.4,4.4l-0.6,6.2c-1.5,14.8-3,29.7-4.5,44.5l-0.9,9.3l-0.5,0.1L693,278l8.7,20.4
		c3.4,8.1,7,16.5,10.7,25.5l17.1-7.1H711v0v3.7l24.2,57.9L752.3,371.3l3.6-18.1L752.3,371.3z"/>
	<path class="st1" d="M391.9,709.8l181.4-198.2c57.4-62.7,98-139.1,117.8-221.8l40.3-168.1L537.3,64.9C442.1,37.1,341,37.2,245.8,65
		L52.3,121.7l40.1,167.5c19.8,82.8,60.3,159.1,117.8,221.9L391.9,709.8"/>
	<path class="st2" d="M391.9,709.8l7.9,7.2l181.4-198.2c58.6-64.1,100-142,120.3-226.5l42.7-178L540.3,54.7
		c-48.6-14.2-98.7-21.3-148.8-21.3c-50.1,0-100.2,7.1-148.8,21.3L39.6,114.3L82,291.6c20.2,84.5,61.6,162.5,120.3,226.6l189.6,207.3
		l7.9-8.6L391.9,709.8l7.9-7.2L218,503.9c-56.2-61.5-95.9-136.2-115.2-217.2L65.1,129l183.7-53.8c46.6-13.6,94.7-20.5,142.8-20.5
		c48.1,0,96.2,6.8,142.8,20.4l184.4,53.9l-38,158.2c-19.4,81-59.1,155.6-115.3,217.1L384,702.6L391.9,709.8l7.9-7.2L391.9,709.8z"/>
	<path d="M487.4,175.1H296.3v-38.3c0-3.7,3-6.6,6.6-6.6h177.8c3.7,0,6.6,3,6.6,6.6V175.1z"/>
	<polygon class="st2" points="337.9,163.1 337.8,151.2 331.9,161 330.5,161 324.6,151.3 324.6,163.1 321.4,163.1 321.4,145.1 
		324.1,145.1 331.3,157 338.2,145.1 341,145.1 341,163.1 	"/>
	<path class="st2" d="M352.9,161.2c-1.4-1.4-2.1-3.4-2.1-6v-10.1h3.3v10c0,3.5,1.5,5.3,4.6,5.3c3,0,4.5-1.8,4.5-5.3v-10h3.3v10.1
		c0,2.6-0.7,4.6-2.1,6c-1.4,1.4-3.3,2.1-5.8,2.1C356.2,163.3,354.3,162.6,352.9,161.2z"/>
	<path class="st2" d="M377.8,162.7c-1.3-0.4-2.3-0.9-3.1-1.6l1.2-2.6c0.7,0.6,1.6,1.1,2.7,1.4c1.1,0.4,2.1,0.6,3.2,0.6
		c1.3,0,2.3-0.2,3-0.6c0.7-0.4,1-1,1-1.7c0-0.5-0.2-0.9-0.6-1.3c-0.4-0.3-0.8-0.6-1.4-0.8c-0.6-0.2-1.3-0.4-2.3-0.6
		c-1.4-0.3-2.5-0.6-3.3-1c-0.8-0.3-1.6-0.8-2.2-1.5c-0.6-0.7-0.9-1.6-0.9-2.8c0-1,0.3-1.9,0.8-2.7c0.5-0.8,1.3-1.5,2.4-1.9
		s2.4-0.7,4-0.7c1.1,0,2.2,0.1,3.2,0.4c1.1,0.3,2,0.7,2.7,1.2l-1.1,2.6c-0.8-0.5-1.6-0.8-2.5-1c-0.9-0.2-1.7-0.4-2.5-0.4
		c-1.3,0-2.3,0.2-2.9,0.7c-0.6,0.4-1,1-1,1.8c0,0.5,0.2,0.9,0.6,1.3c0.4,0.3,0.8,0.6,1.4,0.8c0.6,0.2,1.3,0.4,2.3,0.6
		c1.3,0.3,2.4,0.6,3.3,1c0.9,0.3,1.6,0.8,2.2,1.5c0.6,0.7,0.9,1.6,0.9,2.8c0,1-0.3,1.9-0.8,2.7c-0.5,0.8-1.4,1.4-2.4,1.9
		c-1.1,0.5-2.4,0.7-4,0.7C380.5,163.3,379.1,163.1,377.8,162.7z"/>
	<rect x="397.5" y="145.1" class="st2" width="3.3" height="17.9"/>
	<path class="st2" d="M414.2,162.1c-1.5-0.8-2.6-1.9-3.4-3.3c-0.8-1.4-1.2-3-1.2-4.7s0.4-3.3,1.3-4.7s2-2.5,3.4-3.3
		c1.5-0.8,3.1-1.2,4.9-1.2c1.5,0,2.8,0.3,4,0.8c1.2,0.5,2.2,1.3,3.1,2.2l-2.2,2c-1.3-1.4-2.9-2.1-4.8-2.1c-1.2,0-2.3,0.3-3.3,0.8
		c-1,0.5-1.7,1.3-2.3,2.2c-0.5,1-0.8,2-0.8,3.3c0,1.2,0.3,2.3,0.8,3.3c0.5,1,1.3,1.7,2.3,2.2c1,0.5,2.1,0.8,3.3,0.8
		c1.9,0,3.5-0.7,4.8-2.1l2.2,2c-0.8,1-1.9,1.7-3.1,2.2c-1.2,0.5-2.6,0.8-4,0.8C417.3,163.3,415.7,162.9,414.2,162.1z"/>
	<path class="st2" d="M445.8,158.9h-9l-1.8,4.1h-3.4l8.1-17.9h3.3l8.1,17.9h-3.5L445.8,158.9z M444.7,156.3l-3.4-7.8l-3.4,7.8H444.7
		z"/>
	<polygon class="st2" points="458.4,145.1 461.8,145.1 461.8,160.3 471.1,160.3 471.1,163.1 458.4,163.1 	"/>
	<path d="M161.7,346.5c27.6-2.9,248.6-29.5,385.7-9.4s26.4-171.9,19.2-172.6c-7.2-0.7-334.2-1.3-349.1-1.6
		C202.6,162.7,161.7,346.5,161.7,346.5z"/>
	<path d="M194.5,163.2c-33.5,0.5-67.5,1.1-101,1.7l-6.5,0.1l-5.1,4c-11.7,9-17.6,13.7-28.8,22.9l-6.2,5.1l-0.8,8
		c-4.5,43.6-9.1,87.8-13.4,131.4l-2.6,26.3l26-5.1c32.9-6.4,66.4-12.3,99.5-17.4l5.5-0.8l4.2-3.6c11-9.4,16.5-13.9,27.9-23.1l6.2-5
		l1-7.9c1.4-11.5,2.1-17.3,3.5-28.8l2.9-24.1l-24.2,2.2c-13.1,1.2-19.5,1.8-32.8,3.1l-15.8,1.6l-3.1,27.2c-7.2,1-14.4,2-21.5,3
		c2.3-21,4.3-39.2,6.2-56.3c7.2-0.3,14.5-0.6,21.7-0.9l-2.5,21l23.3-1.3c12.9-0.7,19.3-1.1,32.5-1.8l16.5-0.8l2-16.4
		c2-17,3.1-25.4,5.1-42.2l2.7-22.3L194.5,163.2z"/>
	<path d="M285.8,170.8l0.7-5.7l-104.2,17.1l-1.8,14c-4.5,35.5-8.9,70.2-13,103l-6,47.8l47.8-5.5c10.1-1.2,15.1-1.7,25.1-2.7
		l25.2-2.5l25.6-1.7c10.2-0.7,15.2-0.9,25.4-1.4l31.5-1.5l4.2-31.3c4.2-31.7,8.4-63.5,12.7-95.3l4.7-35.4L285.8,170.8z"/>
	<path d="M729.5,316.8L729.5,316.8c-3.8-9-7.3-17.5-10.8-25.6l13.5-3l2.3-22.6c1.5-14.8,3-29.7,4.5-44.5l1.5-15l-10.7-10.6
		c-8.2-8.1-12.7-12.4-21.1-20.3l-8.8-8.3l-12.1-0.2c-30.6-0.6-61.7-1.2-92.5-1.7l-28.7-0.5l-3.1,28.5c-4.2,38.2-8.5,76.4-12.6,113.3
		l-3.5,31l30.9,3.9c11.1,1.4,16.5,2.1,27.5,3.7l32.3,4.6l1.7-15.5c0.2,0.6,0.5,1.1,0.7,1.7l6.7,15.5l16.7,3
		c12.2,2.2,18.2,3.3,30.3,5.7l58,11.4L729.5,316.8z"/>
	<path class="st2" d="M62.5,336.7c3.6-41.9,7.2-83.7,11-125.6c9.4-8.8,14-13,23.4-21.1c27.8-0.2,55.7-0.3,83.5-0.4
		c-1.4,13.3-2.9,26.6-4.3,39.9c-10.8,0.5-16.2,0.8-27,1.4c0.8-7.8,1.2-11.7,2-19.6c-15.1,0.5-30.2,1-45.3,1.6
		c-2.5,2.1-3.7,3.2-6.1,5.4c-2.9,29.5-5.7,59.1-8.4,88.6c15-2.6,30-5,45.1-7.2c2.5-2.3,3.8-3.5,6.3-5.8c0.8-8.2,1.2-12.3,2-20.4
		c10.8-1.2,16.2-1.7,26.9-2.8c-1.2,10.9-1.7,16.3-2.9,27.3c-9.4,8.6-14.1,13-23.5,22.2C117.6,324.9,89.9,330.4,62.5,336.7z"/>
	<path class="st2" d="M62.5,336.7l4.3,0.4c3.6-41.9,7.2-83.7,11-125.6l-4.3-0.4l2.9,3.1c9.3-8.7,13.9-12.9,23.3-21l-2.8-3.2l0,4.3
		c27.8-0.2,55.7-0.3,83.5-0.4l0-4.3l-4.2-0.5c-1.4,13.3-2.9,26.6-4.3,39.9l4.2,0.5l-0.2-4.3c-10.8,0.5-16.2,0.8-27,1.4l0.2,4.3
		l4.2,0.4c0.8-7.8,1.2-11.7,2-19.6l0.5-4.9l-4.9,0.2c-15.1,0.5-30.2,1-45.3,1.6l-1.5,0.1l-1.1,1c-2.5,2.1-3.7,3.2-6.2,5.4l-1.3,1.1
		l-0.2,1.7c-2.9,29.5-5.7,59.1-8.4,88.6l-0.5,5.6l5.5-1c14.9-2.6,29.9-5,44.9-7.2l1.3-0.2l1-0.9c2.5-2.3,3.8-3.5,6.3-5.7l1.2-1.1
		l0.2-1.6c0.8-8.2,1.2-12.3,2-20.4l-4.2-0.4l0.5,4.2c10.8-1.2,16.1-1.7,26.9-2.8l-0.4-4.2l-4.2-0.5c-1.2,10.9-1.7,16.3-2.9,27.3
		l4.2,0.5l-2.9-3.1c-9.4,8.6-14.2,13.1-23.6,22.3l3,3l-0.7-4.2c-27.8,4.7-55.6,10.2-83.1,16.5L62.5,336.7l4.3,0.4L62.5,336.7l1,4.2
		c27.3-6.3,54.9-11.8,82.6-16.4l1.3-0.2l1-0.9c9.4-9.2,14-13.5,23.4-22.1l1.2-1.1l0.2-1.6c1.2-10.9,1.7-16.4,2.9-27.3l0.6-5.2
		l-5.2,0.5c-10.8,1.1-16.2,1.6-27,2.8l-3.4,0.4l-0.3,3.4c-0.8,8.1-1.2,12.2-2,20.4l4.2,0.4l-2.9-3.2c-2.5,2.3-3.8,3.5-6.4,5.8
		l2.9,3.1l-0.6-4.2c-15.1,2.2-30.2,4.6-45.2,7.2l0.7,4.2l4.2,0.4c2.8-29.5,5.6-59.1,8.4-88.6l-4.2-0.4l2.8,3.2
		c2.4-2.2,3.6-3.2,6.1-5.4l-2.8-3.2l0.2,4.3c15.1-0.6,30.2-1.1,45.3-1.6l-0.1-4.3l-4.2-0.4c-0.8,7.8-1.2,11.7-2,19.6l-0.5,5l5-0.3
		c10.8-0.6,16.2-0.9,26.9-1.4l3.6-0.2l0.4-3.6c1.4-13.3,2.8-26.6,4.3-39.9l0.5-4.7l-4.8,0c-27.8,0.1-55.7,0.2-83.5,0.4l-1.6,0
		l-1.2,1c-9.4,8.2-14.2,12.5-23.5,21.2l-1.2,1.1l-0.1,1.6c-3.7,41.9-7.4,83.7-11,125.6l-0.5,5.8l5.7-1.3L62.5,336.7z"/>
	<path class="st2" d="M196.3,312.6c4.5-41,9.1-82.1,13.7-123.1c10.8,0,16.2-0.1,27-0.1c-2.2,19.5-4.5,38.9-6.7,58.4
		c18.8-6.9,37.7-13.5,56.7-19.8c1.8-15.5,2.7-23.3,4.4-38.7c10.9,0,16.3,0,27.2,0c-4.5,37.7-8.9,75.5-13.4,113.2
		c-10.9,0.6-16.4,0.9-27.3,1.8c2.1-18.5,4.3-36.9,6.4-55.4c-19,6.6-37.8,13.5-56.5,20.8c-1.5,13.2-3,26.5-4.5,39.7
		C212.5,310.5,207.1,311.1,196.3,312.6z"/>
	<path class="st2" d="M196.3,312.6l4.2,0.5c4.5-41,9.1-82.1,13.7-123.1l-4.2-0.5l0,4.3c10.8,0,16.2-0.1,27-0.1l0-4.3l-4.2-0.5
		c-2.2,19.5-4.5,38.9-6.7,58.4l-0.8,6.9l6.5-2.4c18.8-6.9,37.6-13.4,56.6-19.8l2.6-0.9l0.3-2.7c1.8-15.5,2.7-23.3,4.4-38.7l-4.2-0.5
		l0,4.3c10.9,0,16.3,0,27.2,0l0-4.3l-4.2-0.5c-4.5,37.7-8.9,75.5-13.4,113.2l4.2,0.5l-0.2-4.3c-11,0.6-16.5,1-27.4,1.8l0.3,4.3
		l4.2,0.5c2.1-18.5,4.3-36.9,6.4-55.4l0.8-6.8l-6.4,2.2c-19,6.6-37.9,13.6-56.7,20.8l-2.4,0.9l-0.3,2.6c-1.5,13.2-3,26.5-4.5,39.7
		l4.2,0.5l-0.5-4.2c-10.8,1.2-16.3,1.9-27.1,3.3L196.3,312.6l4.2,0.5L196.3,312.6l0.6,4.2c10.8-1.4,16.1-2.1,26.9-3.3l3.4-0.4
		l0.4-3.4c1.5-13.2,3-26.5,4.5-39.7l-4.2-0.5l1.5,4c18.7-7.2,37.5-14.1,56.4-20.7l-1.4-4l-4.2-0.5c-2.1,18.5-4.3,36.9-6.4,55.4
		l-0.6,5.1l5.1-0.4c10.9-0.8,16.3-1.2,27.3-1.8l3.6-0.2l0.4-3.6c4.4-37.7,8.9-75.5,13.4-113.2l0.6-4.8l-4.8,0c-10.9,0-16.3,0-27.2,0
		l-3.8,0l-0.4,3.8c-1.8,15.5-2.6,23.2-4.4,38.7l4.2,0.5l-1.4-4c-19,6.4-38,13-56.8,19.9l1.5,4l4.2,0.5c2.2-19.5,4.5-38.9,6.7-58.4
		l0.6-4.8l-4.8,0c-10.8,0-16.2,0.1-27,0.1l-3.8,0l-0.4,3.8c-4.6,41-9.2,82.1-13.7,123.1l-0.6,5.4l5.4-0.7L196.3,312.6z"/>
	<path class="st2" d="M334.9,301.1c3.8-31.9,7.5-63.8,11.2-95.7c9.4-6.5,14.1-9.8,23.5-16.3c29,0,58.1,0,87.1,0.1
		c-4.1,37.5-8.3,74.9-12.5,112.4c-11-0.5-16.4-0.6-27.4-0.9c1.7-15.2,3.5-30.3,5.2-45.5c-18.9,5.3-37.8,10.8-56.6,16.6
		c-1.4,11.5-2.1,17.2-3.4,28.7C351.2,300.6,345.8,300.8,334.9,301.1z M367.9,251.6c18.8-5.7,37.6-11.2,56.5-16.6
		c1.2-10.8,1.9-16.3,3.1-27.1c-16.3-0.1-32.5-0.1-48.8-0.1c-2.5,1.7-3.7,2.5-6.1,4.1C371,225.1,369.5,238.4,367.9,251.6z"/>
	<path class="st2" d="M334.9,301.1l4.2,0.5c3.8-31.9,7.5-63.8,11.2-95.7l-4.2-0.5l2.4,3.5c9.4-6.5,14.1-9.8,23.4-16.3l-2.4-3.5
		l0,4.3c2.7,0,5.5,0,8.2,0c26.3,0,52.6,0,78.9,0.1l0-4.3l-4.2-0.5c-4.1,37.5-8.3,74.9-12.5,112.4l4.2,0.5l0.2-4.3
		c-11-0.5-16.5-0.7-27.5-0.9l-0.1,4.3l4.2,0.5c1.7-15.2,3.5-30.3,5.2-45.5l0.7-6.3l-6.1,1.7c-18.9,5.3-37.8,10.9-56.7,16.6l-2.7,0.8
		l-0.3,2.8c-1.4,11.5-2.1,17.2-3.4,28.7l4.2,0.5l-0.1-4.3c-10.9,0.2-16.4,0.3-27.3,0.7L334.9,301.1l4.2,0.5L334.9,301.1l0.1,4.3
		c10.9-0.4,16.2-0.5,27.1-0.7l3.7-0.1l0.4-3.7c1.4-11.5,2.1-17.2,3.4-28.7l-4.2-0.5l1.3,4.1c18.7-5.7,37.6-11.2,56.5-16.6l-1.2-4.1
		l-4.2-0.5c-1.7,15.2-3.5,30.3-5.2,45.5l-0.5,4.6l4.7,0.1c10.9,0.3,16.4,0.4,27.3,0.9l4,0.2l0.4-4c4.2-37.5,8.4-74.9,12.5-112.4
		l0.5-4.7l-4.8,0c-26.3,0-52.6-0.1-78.9-0.1c-2.7,0-5.5,0-8.2,0h-1.3l-1.1,0.8c-9.4,6.5-14.1,9.7-23.5,16.3l-1.6,1.1l-0.2,1.9
		c-3.7,31.9-7.5,63.8-11.2,95.7l-0.6,4.9l5-0.2L334.9,301.1z M367.9,251.6l1.2,4.1c18.8-5.7,37.6-11.2,56.4-16.6l2.7-0.8l0.3-2.8
		c1.2-10.8,1.9-16.3,3.1-27.1l0.5-4.7l-4.8,0c-16.3-0.1-32.5-0.1-48.8-0.1l-1.3,0l-1.1,0.7c-2.5,1.7-3.7,2.5-6.1,4.1l-1.6,1.1
		l-0.2,1.9c-1.6,13.2-3.1,26.5-4.7,39.7l-0.8,6.5l6.2-1.9L367.9,251.6l4.2,0.5c1.6-13.2,3.1-26.5,4.7-39.7l-4.2-0.5l2.4,3.5
		c2.5-1.7,3.7-2.5,6.1-4.1l-2.4-3.5l0,4.3c16.3,0,32.5,0.1,48.8,0.1l0-4.3l-4.2-0.5c-1.2,10.9-1.9,16.3-3.1,27.1l4.2,0.5l-1.2-4.1
		c-18.9,5.4-37.7,10.9-56.6,16.6L367.9,251.6l4.2,0.5L367.9,251.6z"/>
	<path class="st2" d="M474,303.2c0.8-7.6,1.2-11.4,2-18.9c10.7,0.6,16,0.9,26.7,1.7c2.8-25.7,5.5-51.4,8.2-77.1
		c-10.6-0.2-16-0.3-26.6-0.4c0.8-7.7,1.2-11.5,2-19.2c26.7,0.1,53.4,0.1,80.2,0.2c-0.8,8.2-1.2,12.3-2,20.5
		c-10.6-0.3-15.9-0.4-26.6-0.6c-2.7,26.2-5.4,52.5-8.1,78.7c10.7,0.9,16,1.4,26.6,2.5c-0.8,8-1.2,12-2,20
		C527.6,307.5,500.9,305,474,303.2z"/>
	<path class="st2" d="M474,303.2l4.2,0.5c0.8-7.6,1.2-11.4,2-18.9l-4.2-0.5l-0.2,4.3c10.7,0.6,16,0.9,26.6,1.7l4.1,0.3l0.4-4.1
		c2.8-25.7,5.5-51.4,8.2-77.1l0.5-4.6l-4.7-0.1c-10.6-0.2-16-0.3-26.6-0.4l-0.1,4.3l4.2,0.4c0.8-7.7,1.2-11.5,2-19.2l-4.2-0.4l0,4.3
		c26.7,0.1,53.4,0.1,80.1,0.2l0-4.3l-4.2-0.4c-0.8,8.2-1.2,12.3-2,20.5l4.2,0.4l0.1-4.3c-10.6-0.3-16-0.4-26.6-0.6L534,205l-0.4,3.9
		c-2.7,26.2-5.4,52.5-8.1,78.7l-0.5,4.3l4.3,0.4c10.6,0.9,15.9,1.4,26.6,2.5l0.4-4.2l-4.2-0.4c-0.8,8-1.2,12-2,20l4.2,0.4l0.5-4.2
		c-26.8-3.1-53.7-5.5-80.6-7.4L474,303.2l4.2,0.5L474,303.2l-0.3,4.3c26.8,1.9,53.5,4.3,80.2,7.4l4.3,0.5l0.4-4.3c0.8-8,1.2-12,2-20
		l0.4-4.2l-4.2-0.4c-10.6-1.1-16-1.6-26.7-2.5l-0.4,4.3l4.2,0.4c2.7-26.2,5.4-52.5,8.1-78.7l-4.2-0.4l-0.1,4.3
		c10.6,0.2,15.9,0.3,26.6,0.6l4,0.1l0.4-4c0.8-8.2,1.2-12.3,2-20.5l0.4-4.7l-4.7,0c-26.7-0.1-53.4-0.2-80.2-0.2l-3.9,0l-0.4,3.8
		c-0.8,7.7-1.2,11.5-2,19.2l-0.5,4.7l4.7,0.1c10.6,0.1,15.9,0.2,26.6,0.4l0.1-4.3l-4.2-0.4c-2.7,25.7-5.4,51.4-8.2,77.1l4.2,0.5
		l0.3-4.3c-10.7-0.7-16.1-1.1-26.7-1.7l-4-0.2l-0.4,4c-0.8,7.6-1.2,11.4-2,18.9l-0.5,4.4l4.4,0.3L474,303.2z"/>
	<path class="st2" d="M583.9,314.4c4.1-41.6,8.1-83.2,12-124.8c29.6,0.1,59.2,0.3,88.8,0.5c7.9,8.3,11.8,12.6,19.6,21.5
		c-1.5,16.5-2.9,33-4.4,49.5c-11,3-16.5,4.4-27.4,7.2c8.6,22.2,16.8,44.5,24.8,66.8c-11.8-2.7-17.8-3.9-29.6-6.3
		c-6.7-18.1-13.6-36-20.7-53.9c-13.1,3.1-19.6,4.6-32.7,7.6c-1.3,14.5-2,21.7-3.4,36C600.1,316.8,594.7,315.9,583.9,314.4z
		 M616.4,259.2c19.5-5.1,38.8-10.3,58.2-15.9c0.9-9.8,1.3-14.7,2.2-24.5c-2.1-2.2-3.2-3.3-5.3-5.4c-16.8-0.7-33.7-1.3-50.6-1.8
		C619.5,227.4,617.9,243.3,616.4,259.2z"/>
	<path class="st2" d="M583.9,314.4l4.2,0.4c4.1-41.6,8.1-83.2,12-124.8l-4.2-0.4l0,4.3c29.6,0.1,59.2,0.3,88.8,0.5l0-4.3l-3.1,2.9
		c7.9,8.3,11.7,12.6,19.5,21.4l3.2-2.8l-4.3-0.4c-1.5,16.5-2.9,33-4.4,49.5l4.3,0.4l-1.1-4.1c-11,3-16.4,4.4-27.4,7.2l-4.7,1.2
		l1.7,4.5c8.5,22.1,16.7,44.4,24.8,66.8l4-1.4l0.9-4.2c-11.8-2.7-17.8-3.9-29.7-6.4l-0.8,4.2l4-1.5c-6.7-18.1-13.6-36.1-20.8-54
		l-1.4-3.4l-3.6,0.9c-13.1,3.1-19.6,4.6-32.7,7.6l-3,0.7l-0.3,3.1c-1.3,14.5-2,21.7-3.4,36l4.2,0.4l0.7-4.2
		c-10.8-1.7-16.2-2.6-27-4.1L583.9,314.4l4.2,0.4L583.9,314.4l-0.6,4.2c10.8,1.5,16.1,2.3,26.9,4.1l4.5,0.7l0.4-4.5
		c1.3-14.3,2-21.6,3.4-36l-4.2-0.4l0.9,4.2c13.1-3,19.7-4.5,32.8-7.6l-1-4.1l-4,1.6c7.1,17.9,14,35.8,20.7,53.9l0.8,2.2l2.3,0.5
		c11.9,2.4,17.7,3.7,29.5,6.3l7.6,1.7l-2.6-7.3c-8-22.4-16.3-44.7-24.8-66.9l-4,1.5l1,4.1c11-2.8,16.5-4.2,27.5-7.2l2.9-0.8l0.3-3
		c1.5-16.5,2.9-33,4.4-49.5l0.2-1.8l-1.2-1.4c-7.8-8.9-11.8-13.2-19.7-21.6l-1.3-1.3l-1.8,0c-29.6-0.2-59.2-0.3-88.8-0.5l-3.9,0
		l-0.4,3.9c-4,41.6-8,83.2-12,124.8l-0.4,4.1l4,0.6L583.9,314.4z M616.4,259.2l1.1,4.1c19.5-5.1,38.9-10.4,58.3-15.9l2.8-0.8
		l0.3-2.9c0.9-9.8,1.3-14.7,2.2-24.5l0.2-1.9l-1.4-1.4c-2.1-2.2-3.2-3.3-5.3-5.5l-1.2-1.2l-1.7-0.1c-16.9-0.7-33.7-1.3-50.6-1.8
		l-4-0.1l-0.4,4c-1.5,15.9-3,31.8-4.6,47.7l-0.6,6.1l5.9-1.5L616.4,259.2l4.2,0.4c1.5-15.9,3.1-31.8,4.6-47.7l-4.2-0.4l-0.1,4.3
		c16.8,0.5,33.7,1.1,50.5,1.8l0.2-4.3l-3,3c2.1,2.2,3.1,3.2,5.3,5.4l3.1-3l-4.3-0.4c-0.9,9.9-1.3,14.8-2.2,24.5l4.2,0.4l-1.2-4.1
		c-19.3,5.5-38.6,10.8-58.1,15.9L616.4,259.2l4.2,0.4L616.4,259.2z"/>
	<g>
		<defs>
			<path id="SVGID_3_" d="M773.6,622.7H11.5V299.9c249.7-66.7,512.5-66.7,762.1,0V622.7"/>
		</defs>
		<clipPath id="SVGID_1_">
			<use xlink:href="#SVGID_3_"  style="overflow:visible;"/>
		</clipPath>
		<path class="st3" d="M62.5,336.7c3.6-41.9,7.2-83.7,11-125.6c9.4-8.8,14-13,23.4-21.1c27.8-0.2,55.7-0.3,83.5-0.4
			c-1.4,13.3-2.9,26.6-4.3,39.9c-10.8,0.5-16.2,0.8-27,1.4c0.8-7.8,1.2-11.7,2-19.6c-15.1,0.5-30.2,1-45.3,1.6
			c-2.5,2.1-3.7,3.2-6.1,5.4c-2.9,29.5-5.7,59.1-8.4,88.6c15-2.6,30-5,45.1-7.2c2.5-2.3,3.8-3.5,6.3-5.8c0.8-8.2,1.2-12.3,2-20.4
			c10.8-1.2,16.2-1.7,26.9-2.8c-1.2,10.9-1.7,16.3-2.9,27.3c-9.4,8.6-14.1,13-23.5,22.2C117.6,324.9,89.9,330.4,62.5,336.7z"/>
		<path class="st3" d="M62.5,336.7l4.3,0.4c3.6-41.9,7.2-83.7,11-125.6l-4.3-0.4l2.9,3.1c9.3-8.7,13.9-12.9,23.3-21l-2.8-3.2l0,4.3
			c27.8-0.2,55.7-0.3,83.5-0.4l0-4.3l-4.2-0.5c-1.4,13.3-2.9,26.6-4.3,39.9l4.2,0.5l-0.2-4.3c-10.8,0.5-16.2,0.8-27,1.4l0.2,4.3
			l4.2,0.4c0.8-7.8,1.2-11.7,2-19.6l0.5-4.9l-4.9,0.2c-15.1,0.5-30.2,1-45.3,1.6l-1.5,0.1l-1.1,1c-2.5,2.1-3.7,3.2-6.2,5.4l-1.3,1.1
			l-0.2,1.7c-2.9,29.5-5.7,59.1-8.4,88.6l-0.5,5.6l5.5-1c14.9-2.6,29.9-5,44.9-7.2l1.3-0.2l1-0.9c2.5-2.3,3.8-3.5,6.3-5.7l1.2-1.1
			l0.2-1.6c0.8-8.2,1.2-12.3,2-20.4l-4.2-0.4l0.5,4.2c10.8-1.2,16.1-1.7,26.9-2.8l-0.4-4.2l-4.2-0.5c-1.2,10.9-1.7,16.3-2.9,27.3
			l4.2,0.5l-2.9-3.1c-9.4,8.6-14.2,13.1-23.6,22.3l3,3l-0.7-4.2c-27.8,4.7-55.6,10.2-83.1,16.5L62.5,336.7l4.3,0.4L62.5,336.7l1,4.2
			c27.3-6.3,54.9-11.8,82.6-16.4l1.3-0.2l1-0.9c9.4-9.2,14-13.5,23.4-22.1l1.2-1.1l0.2-1.6c1.2-10.9,1.7-16.4,2.9-27.3l0.6-5.2
			l-5.2,0.5c-10.8,1.1-16.2,1.6-27,2.8l-3.4,0.4l-0.3,3.4c-0.8,8.1-1.2,12.2-2,20.4l4.2,0.4l-2.9-3.2c-2.5,2.3-3.8,3.5-6.4,5.8
			l2.9,3.1l-0.6-4.2c-15.1,2.2-30.2,4.6-45.2,7.2l0.7,4.2l4.2,0.4c2.8-29.5,5.6-59.1,8.4-88.6l-4.2-0.4l2.8,3.2
			c2.4-2.2,3.6-3.2,6.1-5.4l-2.8-3.2l0.2,4.3c15.1-0.6,30.2-1.1,45.3-1.6l-0.1-4.3l-4.2-0.4c-0.8,7.8-1.2,11.7-2,19.6l-0.5,5l5-0.3
			c10.8-0.6,16.2-0.9,26.9-1.4l3.6-0.2l0.4-3.6c1.4-13.3,2.8-26.6,4.3-39.9l0.5-4.7l-4.8,0c-27.8,0.1-55.7,0.2-83.5,0.4l-1.6,0
			l-1.2,1c-9.4,8.2-14.2,12.5-23.5,21.2l-1.2,1.1l-0.1,1.6c-3.7,41.9-7.4,83.7-11,125.6l-0.5,5.8l5.7-1.3L62.5,336.7z"/>
		<path class="st3" d="M196.3,312.6c4.5-41,9.1-82.1,13.7-123.1c10.8,0,16.2-0.1,27-0.1c-2.2,19.5-4.5,38.9-6.7,58.4
			c18.8-6.9,37.7-13.5,56.7-19.8c1.8-15.5,2.7-23.3,4.4-38.7c10.9,0,16.3,0,27.2,0c-4.5,37.7-8.9,75.5-13.4,113.2
			c-10.9,0.6-16.4,0.9-27.3,1.8c2.1-18.5,4.3-36.9,6.4-55.4c-19,6.6-37.8,13.5-56.5,20.8c-1.5,13.2-3,26.5-4.5,39.7
			C212.5,310.5,207.1,311.1,196.3,312.6z"/>
		<path class="st3" d="M196.3,312.6l4.2,0.5c4.5-41,9.1-82.1,13.7-123.1l-4.2-0.5l0,4.3c10.8,0,16.2-0.1,27-0.1l0-4.3l-4.2-0.5
			c-2.2,19.5-4.5,38.9-6.7,58.4l-0.8,6.9l6.5-2.4c18.8-6.9,37.6-13.4,56.6-19.8l2.6-0.9l0.3-2.7c1.8-15.5,2.7-23.3,4.4-38.7
			l-4.2-0.5l0,4.3c10.9,0,16.3,0,27.2,0l0-4.3l-4.2-0.5c-4.5,37.7-8.9,75.5-13.4,113.2l4.2,0.5l-0.2-4.3c-11,0.6-16.5,1-27.4,1.8
			l0.3,4.3l4.2,0.5c2.1-18.5,4.3-36.9,6.4-55.4l0.8-6.8l-6.4,2.2c-19,6.6-37.9,13.6-56.7,20.8l-2.4,0.9l-0.3,2.6
			c-1.5,13.2-3,26.5-4.5,39.7l4.2,0.5l-0.5-4.2c-10.8,1.2-16.3,1.9-27.1,3.3L196.3,312.6l4.2,0.5L196.3,312.6l0.6,4.2
			c10.8-1.4,16.1-2.1,26.9-3.3l3.4-0.4l0.4-3.4c1.5-13.2,3-26.5,4.5-39.7l-4.2-0.5l1.5,4c18.7-7.2,37.5-14.1,56.4-20.7l-1.4-4
			l-4.2-0.5c-2.1,18.5-4.3,36.9-6.4,55.4l-0.6,5.1l5.1-0.4c10.9-0.8,16.3-1.2,27.3-1.8l3.6-0.2l0.4-3.6
			c4.4-37.7,8.9-75.5,13.4-113.2l0.6-4.8l-4.8,0c-10.9,0-16.3,0-27.2,0l-3.8,0l-0.4,3.8c-1.8,15.5-2.6,23.2-4.4,38.7l4.2,0.5l-1.4-4
			c-19,6.4-38,13-56.8,19.9l1.5,4l4.2,0.5c2.2-19.5,4.5-38.9,6.7-58.4l0.6-4.8l-4.8,0c-10.8,0-16.2,0.1-27,0.1l-3.8,0l-0.4,3.8
			c-4.6,41-9.2,82.1-13.7,123.1l-0.6,5.4l5.4-0.7L196.3,312.6z"/>
		<path class="st3" d="M334.9,301.1c3.8-31.9,7.5-63.8,11.2-95.7c9.4-6.5,14.1-9.8,23.5-16.3c29,0,58.1,0,87.1,0.1
			c-4.1,37.5-8.3,74.9-12.5,112.4c-11-0.5-16.4-0.6-27.4-0.9c1.7-15.2,3.5-30.3,5.2-45.5c-18.9,5.3-37.8,10.8-56.6,16.6
			c-1.4,11.5-2.1,17.2-3.4,28.7C351.2,300.6,345.8,300.8,334.9,301.1z M367.9,251.6c18.8-5.7,37.6-11.2,56.5-16.6
			c1.2-10.8,1.9-16.3,3.1-27.1c-16.3-0.1-32.5-0.1-48.8-0.1c-2.5,1.7-3.7,2.5-6.1,4.1C371,225.1,369.5,238.4,367.9,251.6z"/>
		<path class="st3" d="M334.9,301.1l4.2,0.5c3.8-31.9,7.5-63.8,11.2-95.7l-4.2-0.5l2.4,3.5c9.4-6.5,14.1-9.8,23.4-16.3l-2.4-3.5
			l0,4.3c2.7,0,5.5,0,8.2,0c26.3,0,52.6,0,78.9,0.1l0-4.3l-4.2-0.5c-4.1,37.5-8.3,74.9-12.5,112.4l4.2,0.5l0.2-4.3
			c-11-0.5-16.5-0.7-27.5-0.9l-0.1,4.3l4.2,0.5c1.7-15.2,3.5-30.3,5.2-45.5l0.7-6.3l-6.1,1.7c-18.9,5.3-37.8,10.9-56.7,16.6
			l-2.7,0.8l-0.3,2.8c-1.4,11.5-2.1,17.2-3.4,28.7l4.2,0.5l-0.1-4.3c-10.9,0.2-16.4,0.3-27.3,0.7L334.9,301.1l4.2,0.5L334.9,301.1
			l0.1,4.3c10.9-0.4,16.2-0.5,27.1-0.7l3.7-0.1l0.4-3.7c1.4-11.5,2.1-17.2,3.4-28.7l-4.2-0.5l1.3,4.1c18.7-5.7,37.6-11.2,56.5-16.6
			l-1.2-4.1l-4.2-0.5c-1.7,15.2-3.5,30.3-5.2,45.5l-0.5,4.6l4.7,0.1c10.9,0.3,16.4,0.4,27.3,0.9l4,0.2l0.4-4
			c4.2-37.5,8.4-74.9,12.5-112.4l0.5-4.7l-4.8,0c-26.3,0-52.6-0.1-78.9-0.1c-2.7,0-5.5,0-8.2,0h-1.3l-1.1,0.8
			c-9.4,6.5-14.1,9.7-23.5,16.3l-1.6,1.1l-0.2,1.9c-3.7,31.9-7.5,63.8-11.2,95.7l-0.6,4.9l5-0.2L334.9,301.1z M367.9,251.6l1.2,4.1
			c18.8-5.7,37.6-11.2,56.4-16.6l2.7-0.8l0.3-2.8c1.2-10.8,1.9-16.3,3.1-27.1l0.5-4.7l-4.8,0c-16.3-0.1-32.5-0.1-48.8-0.1l-1.3,0
			l-1.1,0.7c-2.5,1.7-3.7,2.5-6.1,4.1l-1.6,1.1l-0.2,1.9c-1.6,13.2-3.1,26.5-4.7,39.7l-0.8,6.5l6.2-1.9L367.9,251.6l4.2,0.5
			c1.6-13.2,3.1-26.5,4.7-39.7l-4.2-0.5l2.4,3.5c2.5-1.7,3.7-2.5,6.1-4.1l-2.4-3.5l0,4.3c16.3,0,32.5,0.1,48.8,0.1l0-4.3l-4.2-0.5
			c-1.2,10.9-1.9,16.3-3.1,27.1l4.2,0.5l-1.2-4.1c-18.9,5.4-37.7,10.9-56.6,16.6L367.9,251.6l4.2,0.5L367.9,251.6z"/>
		<path class="st3" d="M474,303.2c0.8-7.6,1.2-11.4,2-18.9c10.7,0.6,16,0.9,26.7,1.7c2.8-25.7,5.5-51.4,8.2-77.1
			c-10.6-0.2-16-0.3-26.6-0.4c0.8-7.7,1.2-11.5,2-19.2c26.7,0.1,53.4,0.1,80.2,0.2c-0.8,8.2-1.2,12.3-2,20.5
			c-10.6-0.3-15.9-0.4-26.6-0.6c-2.7,26.2-5.4,52.5-8.1,78.7c10.7,0.9,16,1.4,26.6,2.5c-0.8,8-1.2,12-2,20
			C527.6,307.5,500.9,305,474,303.2z"/>
		<path class="st3" d="M474,303.2l4.2,0.5c0.8-7.6,1.2-11.4,2-18.9l-4.2-0.5l-0.2,4.3c10.7,0.6,16,0.9,26.6,1.7l4.1,0.3l0.4-4.1
			c2.8-25.7,5.5-51.4,8.2-77.1l0.5-4.6l-4.7-0.1c-10.6-0.2-16-0.3-26.6-0.4l-0.1,4.3l4.2,0.4c0.8-7.7,1.2-11.5,2-19.2l-4.2-0.4
			l0,4.3c26.7,0.1,53.4,0.1,80.1,0.2l0-4.3l-4.2-0.4c-0.8,8.2-1.2,12.3-2,20.5l4.2,0.4l0.1-4.3c-10.6-0.3-16-0.4-26.6-0.6L534,205
			l-0.4,3.9c-2.7,26.2-5.4,52.5-8.1,78.7l-0.5,4.3l4.3,0.4c10.6,0.9,15.9,1.4,26.6,2.5l0.4-4.2l-4.2-0.4c-0.8,8-1.2,12-2,20l4.2,0.4
			l0.5-4.2c-26.8-3.1-53.7-5.5-80.6-7.4L474,303.2l4.2,0.5L474,303.2l-0.3,4.3c26.8,1.9,53.5,4.3,80.2,7.4l4.3,0.5l0.4-4.3
			c0.8-8,1.2-12,2-20l0.4-4.2l-4.2-0.4c-10.6-1.1-16-1.6-26.7-2.5l-0.4,4.3l4.2,0.4c2.7-26.2,5.4-52.5,8.1-78.7l-4.2-0.4l-0.1,4.3
			c10.6,0.2,15.9,0.3,26.6,0.6l4,0.1l0.4-4c0.8-8.2,1.2-12.3,2-20.5l0.4-4.7l-4.7,0c-26.7-0.1-53.4-0.2-80.2-0.2l-3.9,0l-0.4,3.8
			c-0.8,7.7-1.2,11.5-2,19.2l-0.5,4.7l4.7,0.1c10.6,0.1,15.9,0.2,26.6,0.4l0.1-4.3l-4.2-0.4c-2.7,25.7-5.4,51.4-8.2,77.1l4.2,0.5
			l0.3-4.3c-10.7-0.7-16.1-1.1-26.7-1.7l-4-0.2l-0.4,4c-0.8,7.6-1.2,11.4-2,18.9l-0.5,4.4l4.4,0.3L474,303.2z"/>
		<path class="st3" d="M583.9,314.4c4.1-41.6,8.1-83.2,12-124.8c29.6,0.1,59.2,0.3,88.8,0.5c7.9,8.3,11.8,12.6,19.6,21.5
			c-1.5,16.5-2.9,33-4.4,49.5c-11,3-16.5,4.4-27.4,7.2c8.6,22.2,16.8,44.5,24.8,66.8c-11.8-2.7-17.8-3.9-29.6-6.3
			c-6.7-18.1-13.6-36-20.7-53.9c-13.1,3.1-19.6,4.6-32.7,7.6c-1.3,14.5-2,21.7-3.4,36C600.1,316.8,594.7,315.9,583.9,314.4z
			 M616.4,259.2c19.5-5.1,38.8-10.3,58.2-15.9c0.9-9.8,1.3-14.7,2.2-24.5c-2.1-2.2-3.2-3.3-5.3-5.4c-16.8-0.7-33.7-1.3-50.6-1.8
			C619.5,227.4,617.9,243.3,616.4,259.2z"/>
		<path class="st3" d="M583.9,314.4l4.2,0.4c4.1-41.6,8.1-83.2,12-124.8l-4.2-0.4l0,4.3c29.6,0.1,59.2,0.3,88.8,0.5l0-4.3l-3.1,2.9
			c7.9,8.3,11.7,12.6,19.5,21.4l3.2-2.8l-4.3-0.4c-1.5,16.5-2.9,33-4.4,49.5l4.3,0.4l-1.1-4.1c-11,3-16.4,4.4-27.4,7.2l-4.7,1.2
			l1.7,4.5c8.5,22.1,16.7,44.4,24.8,66.8l4-1.4l0.9-4.2c-11.8-2.7-17.8-3.9-29.7-6.4l-0.8,4.2l4-1.5c-6.7-18.1-13.6-36.1-20.8-54
			l-1.4-3.4l-3.6,0.9c-13.1,3.1-19.6,4.6-32.7,7.6l-3,0.7l-0.3,3.1c-1.3,14.5-2,21.7-3.4,36l4.2,0.4l0.7-4.2
			c-10.8-1.7-16.2-2.6-27-4.1L583.9,314.4l4.2,0.4L583.9,314.4l-0.6,4.2c10.8,1.5,16.1,2.3,26.9,4.1l4.5,0.7l0.4-4.5
			c1.3-14.3,2-21.6,3.4-36l-4.2-0.4l0.9,4.2c13.1-3,19.7-4.5,32.8-7.6l-1-4.1l-4,1.6c7.1,17.9,14,35.8,20.7,53.9l0.8,2.2l2.3,0.5
			c11.9,2.4,17.7,3.7,29.5,6.3l7.6,1.7l-2.6-7.3c-8-22.4-16.3-44.7-24.8-66.9l-4,1.5l1,4.1c11-2.8,16.5-4.2,27.5-7.2l2.9-0.8l0.3-3
			c1.5-16.5,2.9-33,4.4-49.5l0.2-1.8l-1.2-1.4c-7.8-8.9-11.8-13.2-19.7-21.6l-1.3-1.3l-1.8,0c-29.6-0.2-59.2-0.3-88.8-0.5l-3.9,0
			l-0.4,3.9c-4,41.6-8,83.2-12,124.8l-0.4,4.1l4,0.6L583.9,314.4z M616.4,259.2l1.1,4.1c19.5-5.1,38.9-10.4,58.3-15.9l2.8-0.8
			l0.3-2.9c0.9-9.8,1.3-14.7,2.2-24.5l0.2-1.9l-1.4-1.4c-2.1-2.2-3.2-3.3-5.3-5.5l-1.2-1.2l-1.7-0.1c-16.9-0.7-33.7-1.3-50.6-1.8
			l-4-0.1l-0.4,4c-1.5,15.9-3,31.8-4.6,47.7l-0.6,6.1l5.9-1.5L616.4,259.2l4.2,0.4c1.5-15.9,3.1-31.8,4.6-47.7l-4.2-0.4l-0.1,4.3
			c16.8,0.5,33.7,1.1,50.5,1.8l0.2-4.3l-3,3c2.1,2.2,3.1,3.2,5.3,5.4l3.1-3l-4.3-0.4c-0.9,9.9-1.3,14.8-2.2,24.5l4.2,0.4l-1.2-4.1
			c-19.3,5.5-38.6,10.8-58.1,15.9L616.4,259.2l4.2,0.4L616.4,259.2z"/>
	</g>
	<polyline points="602.1,420.5 181.7,420.5 181.7,327.1 602.1,327.1 602.1,420.5 	"/>
	<path class="st4" d="M543.5,380.6L543.5,380.6c-100.6-6.9-201.6-6.9-302.3,0v-42.8c100.6-6.9,201.6-6.9,302.3,0V380.6z"/>
	<polygon class="st4" points="591,398.8 506.2,398.8 543.5,363.1 591,363.1 569.7,380.6 	"/>
	<polygon class="st4" points="279.2,398.8 194.4,398.8 214.3,380.6 194.4,363.1 241.9,363.1 	"/>
	<path class="st2" d="M279.8,354.6c-1.9,0.1-2.9,0.1-4.8,0.2c0-0.9-0.1-1.4-0.1-2.3c5-0.2,7.4-0.3,12.4-0.6c0,0.9,0.1,1.4,0.1,2.3
		c-1.9,0.1-2.9,0.1-4.8,0.2c0.2,4.9,0.3,7.3,0.5,12.2c-1.1,0-1.6,0.1-2.7,0.1C280.1,361.9,280,359.5,279.8,354.6z"/>
	<path class="st2" d="M300.5,365.2c-1.2-0.6-2.2-1.5-2.9-2.6c-0.7-1.1-1.1-2.4-1.2-3.8c-0.1-1.4,0.2-2.7,0.9-3.9
		c0.6-1.2,1.5-2.1,2.7-2.8c1.2-0.7,2.5-1.1,4-1.1c1.5-0.1,2.8,0.2,4.1,0.8c1.2,0.6,2.2,1.5,2.9,2.6c0.7,1.1,1.1,2.4,1.1,3.8
		c0,1.4-0.3,2.7-0.9,3.9c-0.6,1.2-1.5,2.1-2.7,2.8c-1.2,0.7-2.5,1-4,1.1C303.1,366.1,301.7,365.8,300.5,365.2z M307.1,362.9
		c0.8-0.5,1.3-1.1,1.8-1.9c0.4-0.8,0.6-1.7,0.6-2.6c0-1-0.3-1.8-0.8-2.6c-0.5-0.8-1.1-1.4-1.9-1.8c-0.8-0.4-1.7-0.6-2.6-0.6
		c-1,0-1.8,0.3-2.6,0.7c-0.8,0.5-1.4,1.1-1.8,1.9c-0.4,0.8-0.6,1.7-0.6,2.6s0.3,1.8,0.8,2.6c0.5,0.8,1.1,1.3,1.9,1.8
		c0.8,0.4,1.7,0.6,2.6,0.6C305.4,363.6,306.3,363.4,307.1,362.9z"/>
	<path class="st2" d="M324.8,363.7c-1.2-1.1-1.8-2.7-1.8-4.8c-0.1-3.3-0.1-4.9-0.2-8.2c1.1,0,1.6,0,2.7-0.1c0.1,3.2,0.1,4.8,0.2,8.1
		c0.1,2.8,1.3,4.2,3.8,4.2c2.4-0.1,3.6-1.5,3.6-4.4c-0.1-3.2-0.1-4.8-0.2-8.1c1.1,0,1.6,0,2.7-0.1c0.1,3.3,0.1,4.9,0.2,8.2
		c0,2.1-0.5,3.7-1.6,4.9c-1.1,1.2-2.6,1.8-4.6,1.8C327.5,365.3,326,364.8,324.8,363.7z"/>
	<path class="st2" d="M357.2,364.5c-1.2-1.7-1.8-2.5-3-4.2c-0.1,0-0.3,0-0.6,0c-1.3,0-2,0-3.3,0.1c0,1.7,0,2.5,0.1,4.2
		c-1.1,0-1.6,0-2.7,0c-0.1-5.8-0.2-8.7-0.3-14.5c2.4,0,3.6-0.1,6-0.1c1.3,0,2.4,0.2,3.3,0.6c0.9,0.4,1.7,1,2.2,1.8
		c0.5,0.8,0.8,1.7,0.8,2.7c0,1.1-0.2,2-0.8,2.8c-0.5,0.8-1.3,1.4-2.3,1.8c1.4,1.9,2,2.8,3.4,4.7
		C358.9,364.5,358.4,364.5,357.2,364.5z M356.1,353.1c-0.6-0.5-1.5-0.7-2.7-0.7c-1.3,0-1.9,0-3.2,0c0,2.3,0.1,3.5,0.1,5.8
		c1.3,0,1.9,0,3.2,0c1.2,0,2.1-0.3,2.7-0.8c0.6-0.5,0.9-1.2,0.9-2.2C357,354.3,356.7,353.6,356.1,353.1z"/>
	<path class="st2" d="M383.8,349.8c0,5.8,0,8.7,0,14.5c-0.9,0-1.3,0-2.2,0c-3.2-3.9-4.8-5.9-8.1-9.8c0,3.9,0,5.9,0.1,9.8
		c-1.1,0-1.6,0-2.7,0c0-5.8-0.1-8.7-0.1-14.5c0.9,0,1.3,0,2.2,0c3.2,3.9,4.9,5.9,8.1,9.8c0-3.9,0-5.9,0-9.8
		C382.2,349.8,382.7,349.8,383.8,349.8z"/>
	<path class="st2" d="M405.2,361c-2.9,0-4.4,0-7.3,0c-0.6,1.3-0.9,2-1.4,3.4c-1.1,0-1.7,0-2.8,0c2.6-5.8,3.9-8.7,6.6-14.5
		c1.1,0,1.6,0,2.7,0c2.6,5.8,3.9,8.7,6.5,14.5c-1.1,0-1.7,0-2.8,0C406.1,363,405.8,362.4,405.2,361z M404.4,358.9
		c-1.1-2.5-1.6-3.8-2.7-6.4c-1.1,2.5-1.7,3.8-2.8,6.3C401.1,358.9,402.2,358.9,404.4,358.9z"/>
	<path class="st2" d="M432.7,364.7c0.1-3.8,0.1-5.8,0.1-9.6c-2,3.1-3,4.7-4.9,7.9c-0.5,0-0.7,0-1.2,0c-1.9-3.2-2.8-4.7-4.7-7.9
		c-0.1,3.8-0.1,5.7-0.1,9.5c-1,0-1.5,0-2.6,0c0.1-5.8,0.1-8.7,0.2-14.5c0.9,0,1.3,0,2.2,0c2.3,3.9,3.4,5.8,5.6,9.7
		c2.3-3.8,3.5-5.7,5.8-9.5c0.9,0,1.3,0,2.2,0c-0.1,5.8-0.1,8.7-0.2,14.5C434.3,364.7,433.8,364.7,432.7,364.7z"/>
	<path class="st2" d="M458.2,363c0,0.9,0,1.4-0.1,2.3c-4.4-0.1-6.5-0.2-10.9-0.3c0.1-5.8,0.2-8.7,0.3-14.5c4.3,0.1,6.4,0.2,10.7,0.3
		c0,0.9,0,1.4-0.1,2.3c-3.2-0.1-4.8-0.1-7.9-0.2c0,1.5-0.1,2.3-0.1,3.8c2.8,0.1,4.2,0.1,7,0.2c0,0.9,0,1.3-0.1,2.2
		c-2.8-0.1-4.2-0.1-7-0.2c0,1.6-0.1,2.4-0.1,4C453.3,362.9,455,362.9,458.2,363z"/>
	<path class="st2" d="M482.7,351.6c-0.2,5.8-0.3,8.7-0.6,14.5c-0.9,0-1.3-0.1-2.2-0.1c-3.1-4-4.6-6.1-7.7-10.1
		c-0.1,3.9-0.2,5.9-0.3,9.8c-1.1,0-1.6-0.1-2.7-0.1c0.2-5.8,0.3-8.7,0.5-14.5c0.9,0,1.3,0,2.2,0.1c3.1,4,4.6,6.1,7.7,10.1
		c0.1-3.9,0.2-5.9,0.4-9.8C481.1,351.5,481.6,351.5,482.7,351.6z"/>
	<path class="st2" d="M497.6,354.5c-1.9-0.1-2.9-0.1-4.8-0.2c0-0.9,0.1-1.4,0.1-2.3c5,0.2,7.4,0.3,12.4,0.6c0,0.9-0.1,1.4-0.1,2.3
		c-1.9-0.1-2.9-0.1-4.8-0.2c-0.2,4.9-0.3,7.3-0.6,12.2c-1.1,0-1.6-0.1-2.7-0.1C497.3,361.8,497.4,359.4,497.6,354.5z"/>
	<polyline class="st5" points="386.6,505.5 400.5,552.1 407.6,550.2 396.8,503.1 	"/>
	<path d="M383.2,506.5l13.3,44.6c0.4,1.2,1.1,2.3,2.1,3c1,0.7,2.2,1.1,3.4,1.1c0.5,0,1-0.1,1.5-0.2l0,0l3-0.8
		c1.3-0.3,2.4-1.1,3.1-2.1c0.7-1,1.2-2.2,1.2-3.5c0-0.4,0-0.9-0.1-1.3l0,0l-10.3-45.1l-6.9,1.6l10.3,45.1l0,0l1.3-0.3h-1.3l0,0.3
		l1.3-0.3h-1.3h1.4l-1.1-0.8c-0.2,0.2-0.3,0.5-0.3,0.8h1.4l-1.1-0.8l1.1,0.8l-0.3-1.3c-0.3,0.1-0.6,0.3-0.7,0.5l1.1,0.8l-0.3-1.3
		l-3,0.8l0,0l0.3,1.3v-1.3l-0.3,0l0.3,1.3v-1.3v1.4l0.8-1.1c-0.2-0.2-0.5-0.3-0.8-0.3v1.4l0.8-1.1l-0.8,1.1l1.3-0.4
		c-0.1-0.3-0.3-0.5-0.5-0.7l-0.8,1.1l1.3-0.4L390,504.4L383.2,506.5L383.2,506.5z"/>
	<polyline class="st5" points="329.5,520.5 343.4,567.1 350.5,565.2 339.7,518.1 	"/>
	<path d="M326.1,521.5l13.3,44.6c0.4,1.2,1.1,2.3,2.1,3c1,0.7,2.2,1.1,3.4,1.1c0.5,0,1-0.1,1.4-0.2l0,0l3-0.8
		c1.3-0.3,2.4-1.1,3.1-2.1c0.7-1,1.2-2.2,1.2-3.5c0-0.4,0-0.9-0.1-1.3v0l-10.3-45.1l-6.9,1.6l10.3,45.1v0l1.3-0.3l-1.3,0l0,0.3
		l1.3-0.3l-1.3,0h1.4l-1.1-0.8c-0.2,0.2-0.3,0.5-0.3,0.8h1.4l-1.1-0.8l1.1,0.8l-0.3-1.3c-0.3,0.1-0.6,0.3-0.7,0.5l1.1,0.8l-0.3-1.3
		l-3,0.8l0,0l0.3,1.3l0-1.3l-0.3,0l0.3,1.3l0-1.3v1.4l0.8-1.1c-0.2-0.2-0.5-0.3-0.8-0.3v1.4l0.8-1.1l-0.8,1.1l1.3-0.4
		c-0.1-0.3-0.3-0.5-0.5-0.7l-0.8,1.1l1.3-0.4L333,519.5L326.1,521.5z"/>
	<path d="M321.6,512.5l-1.8,0.5l0,0c-0.9,0.2-1.6,0.8-2.1,1.4c-0.5,0.7-0.8,1.5-0.8,2.4c0,0.3,0,0.7,0.2,1.1l3.4-1l-3.4,0.9l1.2,4.5
		l0,0c0.2,0.9,0.8,1.6,1.4,2.1c0.7,0.5,1.5,0.8,2.4,0.8c0.3,0,0.6,0,0.9-0.1l0.1,0l81.4-21.4l0,0c0.9-0.2,1.6-0.8,2.1-1.4
		c0.5-0.7,0.8-1.5,0.8-2.4c0-0.3,0-0.6-0.1-0.9l0,0l-1.2-4.5l0,0c-0.2-0.9-0.8-1.6-1.4-2.1c-0.7-0.5-1.5-0.8-2.4-0.8
		c-0.3,0-0.7,0-1.1,0.2l1,3.4l-0.9-3.4l-1.9,0.5l1.8,6.9l1.9-0.5l0.1,0l-0.9-3.1v3.2c0.2,0,0.5,0,0.9-0.1l-0.9-3.1v3.2v-3.2
		l-1.9,2.5c0.5,0.4,1.2,0.6,1.9,0.6v-3.2l-1.9,2.5l1.9-2.5l-3.1,0.8c0.2,0.7,0.6,1.3,1.1,1.7l1.9-2.5l-3.1,0.8l0,0l1.2,4.5l3.4-0.9
		l-3.5,0.8l3-0.7h-3.1c0,0.3,0,0.5,0.1,0.7l3-0.7h-3.1h3.2l-2.5-1.9c-0.4,0.5-0.6,1.2-0.6,1.9h3.2l-2.5-1.9l2.5,1.9l-0.8-3.1
		c-0.7,0.2-1.3,0.6-1.7,1.2l2.5,1.9l-0.8-3.1l-81.3,21.4l0.9,3.4l-0.8-3.5l0.7,3v-3.1c-0.3,0-0.5,0-0.7,0.1l0.7,3v-3.1v3.2l1.9-2.5
		c-0.5-0.4-1.2-0.6-1.9-0.6v3.2l1.9-2.5l-1.9,2.5l3.1-0.8c-0.2-0.7-0.6-1.3-1.2-1.7l-1.9,2.5l3.1-0.8v0l-1.2-4.5l0,0l-3.1,0.9h3.2
		c0-0.2,0-0.5-0.1-0.9l-3.1,0.9h3.2h-3.2l2.5,1.9c0.4-0.5,0.6-1.2,0.6-1.9h-3.2l2.5,1.9l-2.5-1.9l0.8,3.1c0.7-0.2,1.3-0.6,1.7-1.1
		l-2.5-1.9l0.8,3.1l0,0l1.8-0.5L321.6,512.5L321.6,512.5z"/>
	
		<rect x="329" y="491" transform="matrix(0.9671 -0.2544 0.2544 0.9671 -114.4016 101.1501)" class="st5" width="9.7" height="3.7"/>
	<path class="st5" d="M299.7,415.7l71.9-18.9c1.9-0.5,3.8,0.6,4.3,2.5l18.9,71.9c0.5,1.9-0.6,3.8-2.5,4.3l-71.9,18.9
		c-1.9,0.5-3.8-0.6-4.3-2.5L297.2,420C296.7,418.1,297.8,416.2,299.7,415.7"/>
	<path class="st6" d="M369.8,405.6c-0.5,0-0.9,0.4-0.8,1l0.7,4.3c1.2,6.7-1.9,13.5-7.9,16.7c-0.4,0.2-0.8,0.4-1.1,0.7
		c-2.5,1.8-2,5.7,0.8,6.9l12.2,5.4c0.4,0.2,0.9,0.3,1.4,0.3c2,0,3.7-1.7,3.3-3.8l0-0.2l-7.8-30.4l0,0
		C370.4,405.8,370.1,405.6,369.8,405.6"/>
	
		<rect x="374.7" y="479" transform="matrix(0.9671 -0.2544 0.2544 0.9671 -109.8345 112.3941)" class="st5" width="9.7" height="3.7"/>
	<path class="st7" d="M316.6,493.3L298,420.8c-0.5-1.9,0.6-3.8,2.5-4.3l71.9-18.9c1.9-0.5,3.8,0.6,4.3,2.5L338,411.8
		c-18.4,5.6-28.3,25.5-21.6,43.6c1.7,4.5,2.8,9.2,3.3,13.9l0.2,5.2C320.3,480.9,319.1,487.4,316.6,493.3z"/>
	<polygon points="378.6,480.4 379.2,482.8 384.7,481.3 383.3,475.8 373.9,478.3 375.4,483.8 380.9,482.3 380.4,480.6 369.4,483.5 
		371.3,490.7 391.7,485.4 389.6,477.5 378.6,480.4 	"/>
	<polygon points="332.8,492.5 333.5,494.8 339,493.4 337.5,487.9 328.2,490.3 329.6,495.8 335.1,494.4 334.7,492.6 323.7,495.5 
		325.6,502.8 345.9,497.4 343.8,489.6 332.8,492.5 	"/>
	<path d="M327.8,488.8l-8.3,2.2l0,0v0h0l0,0v0v0l0,0l0,0v0l0,0l0,0l0,0l0,0l0,0l0,0l-18.9-71.9l0,0h0l0,0l0,0h0h0l0,0l0,0h0l0,0l0,0
		l0,0l0,0l0,0l0,0l0,0l71.9-18.9l0,0v0h0l0,0v0v0l0,0l0,0v0l0,0l0,0l0,0l0,0l0,0l0,0l0,0l0,0l0,0l0,0l0,0l18.9,71.9l0,0h0v0l0,0h0h0
		l0,0l0,0h0l0,0l0,0l0,0l0,0l0,0l0,0l0,0l0,0l0,0l0,0l0,0l-8.8,2.3l1.8,6.9l8.8-2.3c1.6-0.4,2.9-1.4,3.8-2.6
		c0.9-1.2,1.4-2.7,1.4-4.3c0-0.6-0.1-1.2-0.2-1.8l-18.9-71.9c-0.4-1.6-1.4-2.9-2.6-3.8c-1.2-0.9-2.7-1.4-4.3-1.4
		c-0.6,0-1.2,0.1-1.8,0.2l-71.9,18.9l0,0c-1.6,0.4-2.9,1.4-3.8,2.6c-0.9,1.2-1.4,2.7-1.4,4.3c0,0.6,0.1,1.2,0.2,1.8l18.9,71.9
		c0.4,1.6,1.4,2.9,2.6,3.8c1.2,0.9,2.7,1.4,4.3,1.4c0.6,0,1.2-0.1,1.8-0.2l8.3-2.2L327.8,488.8z"/>
	<polyline points="373.9,476.7 336.8,486.4 338.6,493.3 375.7,483.5 	"/>
	<path class="st5" d="M321.3,514.3l-0.9-12.8c-0.1-1.6,1-3.1,2.5-3.5l67.9-17.9c1.6-0.4,3.2,0.4,3.9,1.8l5.6,11.6
		c0.9,1.9-0.1,4.2-2.2,4.8l-72.6,19.1C323.5,517.9,321.5,516.4,321.3,514.3z"/>
	<path class="st7" d="M390,500l5.8-1.5c2.1-0.5,3.1-2.8,2.2-4.8l-5.6-11.6c-0.7-1.5-2.4-2.2-3.9-1.8l-51,13.4
		c0.9,2.1,45.4-7.5,45.4-7.5c1.1-0.2,2.3,0.1,3.2,0.9l3.3,3.1C392.1,492.8,392.4,497,390,500"/>
	<polyline points="339.6,494.4 376.4,484.7 374.5,477.8 337.8,487.5 	"/>
	<path d="M385.5,485.2l6.4-1.7l0-0.2l0,0.2l0,0l0-0.2l0,0.2v-0.1l-0.1,0.1l0.1,0.1v-0.1l-0.1,0.1l5.6,11.6l0.1-0.1h-0.2l0,0.1
		l0.1-0.1h-0.2h0.1l-0.1-0.1l0,0.1h0.1l-0.1-0.1l0.1,0.1l0-0.2l-0.1,0.1l0.1,0.1l0-0.2l-72.6,19.1l0,0.1v-0.1l0,0l0,0.1v-0.1v0.1
		l0.1-0.1l-0.1,0v0.1l0.1-0.1l-0.1,0.1l0.2,0l-0.1-0.1l-0.1,0.1l0.2,0l-0.9-12.8v0l-0.2,0l0.2,0v0l-0.2,0l0.2,0h-0.2l0,0.1l0.1-0.1
		h-0.2l0,0.1l0,0l6.4-1.7l-1.8-6.9l-6.4,1.7l0,0c-3.1,0.8-5.2,3.6-5.2,6.7c0,0.2,0,0.3,0,0.5v0l0.9,12.8c0.1,1.8,1,3.5,2.2,4.7
		c1.3,1.1,2.9,1.8,4.7,1.8c0.6,0,1.2-0.1,1.8-0.2l72.6-19.1c1.6-0.4,2.9-1.4,3.8-2.5c0.9-1.2,1.4-2.7,1.4-4.2c0-1-0.2-2-0.7-3
		l-5.6-11.6c-1.2-2.5-3.7-4-6.3-4c-0.6,0-1.2,0.1-1.8,0.2l-6.4,1.7L385.5,485.2z"/>
	<polyline class="st5" points="397.2,505.5 383.3,552.1 376.2,550.2 387,503.1 	"/>
	<path d="M393.8,504.4L380.5,549l1.3,0.4l-0.8-1.1c-0.2,0.2-0.4,0.4-0.5,0.7l1.3,0.4l-0.8-1.1l0.8,1.1l0-1.4c-0.3,0-0.6,0.1-0.8,0.3
		l0.8,1.1l0-1.4v1.3l0.3-1.3l-0.3,0v1.3l0.3-1.3l0,0l-3-0.8l-0.3,1.3l1.1-0.8c-0.2-0.2-0.4-0.4-0.7-0.5l-0.3,1.3l1.1-0.8l-1.1,0.8
		h1.4c0-0.3-0.1-0.6-0.3-0.8l-1.1,0.8h1.4h-1.4l1.4,0.3l0-0.3h-1.4l1.4,0.3l0,0l10.3-45.1l-6.9-1.6l-10.3,45.1l0,0
		c-0.1,0.4-0.1,0.9-0.1,1.3c0,1.3,0.4,2.5,1.2,3.5c0.7,1,1.8,1.7,3.1,2.1l3,0.8l0,0c0.5,0.1,1,0.2,1.5,0.2c1.2,0,2.4-0.4,3.4-1.1
		c1-0.7,1.7-1.8,2.1-3l13.3-44.6L393.8,504.4L393.8,504.4z"/>
	<polyline class="st5" points="454.2,520.5 440.3,567.1 433.3,565.2 444.1,518.1 	"/>
	<path d="M450.8,519.5l-13.3,44.6l1.3,0.4l-0.8-1.1c-0.2,0.2-0.4,0.4-0.5,0.7l1.3,0.4l-0.8-1.1l0.8,1.1v-1.4c-0.3,0-0.6,0.1-0.8,0.3
		l0.8,1.1v-1.4v1.3l0.3-1.3l-0.3,0v1.3l0.3-1.3l0,0l-3-0.8l-0.3,1.3l1.1-0.8c-0.2-0.2-0.4-0.4-0.7-0.5l-0.3,1.3l1.1-0.8l-1.1,0.8
		h1.4c0-0.3-0.1-0.6-0.3-0.8l-1.1,0.8h1.4h-1.4l1.4,0.3l0-0.3h-1.4l1.4,0.3l10.3-45.1l-6.9-1.6l-10.3,45.1l0,0
		c-0.1,0.4-0.2,0.9-0.2,1.3c0,1.3,0.4,2.5,1.2,3.5c0.7,1,1.8,1.7,3.1,2.1l3,0.8l0,0c0.5,0.1,1,0.2,1.5,0.2c1.2,0,2.4-0.4,3.4-1.1
		c1-0.7,1.7-1.8,2.1-3l13.3-44.6L450.8,519.5L450.8,519.5z"/>
	<path d="M460.4,519.4l1.8,0.5l0,0l0.8-3.1l-2.5,1.9c0.4,0.5,1,1,1.7,1.2l0.8-3.1l-2.5,1.9l2.5-1.9h-3.2c0,0.7,0.2,1.4,0.6,1.9
		l2.5-1.9h-3.2h3.1l-3-0.7c0,0.2-0.1,0.4-0.1,0.7h3.1l-3-0.7l3.5,0.8l-3.4-0.9l-1.2,4.5l0,0l3.1,0.8l-1.9-2.5c-0.5,0.4-1,1-1.1,1.7
		l3.1,0.8l-1.9-2.5l1.9,2.5v-3.2c-0.7,0-1.4,0.2-1.9,0.6l1.9,2.5v-3.2v3.1l0.7-3.1c-0.2-0.1-0.5-0.1-0.7-0.1v3.1l0.7-3.1l-0.8,3.5
		l0.9-3.4l-81.3-21.4l0,0l-0.8,3.1l2.5-1.9c-0.4-0.5-1-1-1.7-1.1l-0.8,3.1l2.5-1.9l-2.5,1.9h3.2c0-0.7-0.2-1.4-0.6-1.9l-2.5,1.9h3.2
		h-3.2l3.1,0.9c0.1-0.4,0.1-0.7,0.1-0.9h-3.2l3.1,0.9l0-0.1l1.2-4.5l0,0l-3.1-0.8l1.9,2.5c0.5-0.4,1-1,1.2-1.7l-3.1-0.8l1.9,2.5
		l-1.9-2.5v3.2c0.7,0,1.4-0.2,1.9-0.6l-1.9-2.5v3.2v-3.2l-0.9,3.1c0.3,0.1,0.7,0.1,0.9,0.1v-3.2l-0.9,3.1l0,0l1.9,0.5l1.8-6.9
		l-1.9-0.5l-0.9,3.4l1-3.4c-0.4-0.1-0.8-0.2-1.1-0.2c-0.9,0-1.7,0.3-2.4,0.8c-0.7,0.5-1.2,1.3-1.4,2.1l0,0l-1.2,4.5l3.4,0.9l-3.4-1
		c-0.1,0.5-0.2,0.8-0.2,1.1c0,0.9,0.3,1.7,0.8,2.4c0.5,0.7,1.3,1.2,2.1,1.4l0,0l81.3,21.4l0,0c0.3,0.1,0.6,0.1,0.9,0.1
		c0.9,0,1.7-0.3,2.4-0.8c0.7-0.5,1.2-1.3,1.4-2.1l1.2-4.6l0,0c0.1-0.3,0.1-0.6,0.1-0.9c0-0.9-0.3-1.7-0.8-2.4
		c-0.5-0.7-1.3-1.2-2.2-1.4l0,0l-1.8-0.5L460.4,519.4L460.4,519.4z"/>
	
		<rect x="448.1" y="488" transform="matrix(0.2544 -0.9671 0.9671 0.2544 -141.1331 802.5928)" class="st5" width="3.7" height="9.7"/>
	<path class="st5" d="M484.1,415.7l-71.9-18.9c-1.9-0.5-3.8,0.6-4.3,2.5L389,471.2c-0.5,1.9,0.6,3.8,2.5,4.3l71.9,18.9
		c1.9,0.5,3.8-0.6,4.3-2.5l18.9-71.9C487.1,418.1,486,416.2,484.1,415.7"/>
	<path class="st6" d="M414,405.6c-0.3,0-0.7,0.2-0.8,0.6l0,0l-7.8,30.4l0,0.2c-0.4,2.1,1.4,3.8,3.3,3.8c0.4,0,0.9-0.1,1.4-0.3
		l12.2-5.4c2.8-1.2,3.3-5.1,0.8-6.9c-0.4-0.3-0.8-0.5-1.1-0.7c-6-3.2-9-10-7.9-16.7l0.7-4.3C414.9,406,414.5,405.6,414,405.6"/>
	
		<rect x="402.4" y="476" transform="matrix(0.2544 -0.9671 0.9671 0.2544 -163.6064 749.3757)" class="st5" width="3.7" height="9.7"/>
	<path class="st7" d="M467.2,493.3l18.5-72.5c0.5-1.9-0.6-3.8-2.5-4.3l-71.9-18.9c-1.9-0.5-3.8,0.6-4.3,2.5l38.7,11.7
		c18.4,5.6,28.3,25.5,21.6,43.6c-1.7,4.5-2.8,9.2-3.3,13.9l-0.2,5.2C463.5,480.9,464.7,487.4,467.2,493.3z"/>
	<polygon points="392.8,477.2 390.4,486.4 413.5,492.5 415.8,483.8 402,480.2 401.5,482 408.4,483.8 410.2,476.9 400.9,474.5 
		399.1,481.3 405.9,483.1 406.6,480.8 392.8,477.2 	"/>
	<polygon points="438.6,489.2 436.1,498.4 459.2,504.5 461.5,495.9 447.8,492.3 447.3,494 454.2,495.8 456,489 446.6,486.5 
		444.8,493.4 451.7,495.2 452.3,492.8 438.6,489.2 	"/>
	<path d="M454.2,495.7l8.3,2.2c0.6,0.2,1.2,0.2,1.8,0.2c1.6,0,3.1-0.5,4.3-1.4c1.2-0.9,2.1-2.3,2.6-3.8l0,0l18.9-71.9
		c0.2-0.6,0.2-1.2,0.2-1.8c0-1.6-0.5-3.1-1.4-4.3c-0.9-1.2-2.3-2.1-3.8-2.6l-71.9-18.9c-0.6-0.2-1.2-0.2-1.8-0.2
		c-1.6,0-3.1,0.5-4.3,1.4c-1.2,0.9-2.1,2.3-2.6,3.8l-18.9,71.9l0,0c-0.2,0.6-0.2,1.2-0.2,1.8c0,1.6,0.5,3.1,1.4,4.3
		c0.9,1.2,2.3,2.1,3.8,2.6l8.8,2.3l1.8-6.9l-8.8-2.3l0,0l0,0l0,0l0,0l0,0l0,0h0l0,0l0,0h0h0l0,0v0h0l0,0l0,0l18.9-71.9l0,0l0,0l0,0
		l0,0l0,0l0,0v0l0,0l0,0v0v-0.1l0,0.1h0v-0.1l0,0.1l0,0l71.9,18.9l0,0l0,0l0,0l0,0l0,0l0,0h0l0,0l0,0h0h0l0,0v0h0l0,0L464.3,491l0,0
		l0,0l0,0l0,0l0,0l0,0l0,0l0,0l0,0l0,0l0,0v0l0,0h0v0l0,0l-8.3-2.2L454.2,495.7z"/>
	<polyline points="408,483.5 445.2,493.3 447,486.4 409.9,476.7 	"/>
	<path class="st5" d="M462.5,514.3l0.9-12.8c0.1-1.6-1-3.1-2.5-3.5L392.9,480c-1.6-0.4-3.2,0.4-3.9,1.8l-5.6,11.6
		c-0.9,1.9,0.1,4.2,2.2,4.8l72.6,19.1C460.3,517.9,462.3,516.4,462.5,514.3z"/>
	<path class="st7" d="M393.8,500l-5.8-1.5c-2.1-0.5-3.1-2.8-2.2-4.8l5.6-11.6c0.7-1.5,2.4-2.2,3.9-1.8l51,13.4
		c-0.9,2.1-45.4-7.5-45.4-7.5c-1.1-0.2-2.3,0.1-3.2,0.9l-3.3,3.1C391.6,492.8,391.4,497,393.8,500"/>
	<polyline points="445.9,488.9 409.2,479.3 407.4,486.1 444.1,495.8 	"/>
	<path d="M400.1,478.3l-6.4-1.7c-0.6-0.2-1.2-0.2-1.8-0.2c-2.6,0-5.1,1.5-6.3,4l0,0l-5.6,11.6c-0.5,1-0.7,2-0.7,3
		c0,1.5,0.5,3,1.4,4.2c0.9,1.2,2.2,2.1,3.8,2.5l72.6,19.1c0.6,0.2,1.2,0.2,1.8,0.2c1.8,0,3.5-0.7,4.7-1.8c1.3-1.1,2.1-2.8,2.2-4.7
		l0.9-12.8v0c0-0.2,0-0.3,0-0.5c0-3.1-2.1-5.9-5.2-6.7l-6.4-1.7l-1.8,6.9l6.4,1.7l0-0.1h-0.2l0.1,0.1l0-0.1h-0.2h0l0,0v0h0l0,0l0,0
		l-0.9,12.8l0.2,0l-0.1-0.1l0,0.1l0.2,0l-0.1-0.1l0.1,0.1l0-0.1l-0.1,0l0.1,0.1l0-0.1v0.1l0-0.1l0,0v0.1l0-0.1l-72.6-19.1l0,0.2
		l0.1-0.1l-0.1-0.1l0,0.2l0.1-0.1l-0.1,0.1h0.1l0-0.1l-0.1,0.1h0.1h-0.2l0.1,0.1l0-0.1h-0.2l0.1,0.1l5.6-11.6l0,0l-0.1-0.1l0,0.2
		l0.1-0.1l-0.1-0.1l0,0.2v-0.2l0,0.1l0,0v-0.2l0,0.1l6.4,1.7L400.1,478.3z"/>
	<polygon points="161.7,346.5 181.7,371 204,355.3 195.4,337.5 	"/>
	<polygon points="622.1,346.5 602.1,371 579.8,355.3 588.4,337.5 	"/>
</g>
</svg>
