<svg width="76" height="71" viewBox="0 0 76 71" fill="none" xmlns="http://www.w3.org/2000/svg">
<path d="M72.4998 37.1939C72.4998 53.7609 59.0572 67.1963 42.4685 67.1963C25.8799 67.1963 12.4373 53.7609 12.4373 37.1939C12.4373 20.6268 25.8799 7.19141 42.4685 7.19141C59.0572 7.19141 72.4998 20.6268 72.4998 37.1939Z" fill="#1861DC" stroke="#3232CE" stroke-width="7"/>
<path d="M71.2225 36.7681C71.2225 53.3352 57.7799 66.7705 41.1912 66.7705C24.6025 66.7705 11.1599 53.3352 11.1599 36.7681C11.1599 20.201 24.6025 6.76562 41.1912 6.76562C57.7799 6.76562 71.2225 20.201 71.2225 36.7681Z" fill="#1E66E1" stroke="#3232CE" stroke-width="7"/>
<path d="M69.9449 36.353C69.9449 52.9201 56.5023 66.3555 39.9136 66.3555C23.3249 66.3555 9.88232 52.9201 9.88232 36.353C9.88232 19.786 23.3249 6.35059 39.9136 6.35059C56.5023 6.35059 69.9449 19.786 69.9449 36.353Z" fill="#256BE6" stroke="#3232CE" stroke-width="7"/>
<path d="M68.6678 35.9312C68.6678 52.4982 55.2252 65.9336 38.6365 65.9336C22.0478 65.9336 8.60522 52.4982 8.60522 35.9312C8.60522 19.3641 22.0478 5.92871 38.6365 5.92871C55.2252 5.92871 68.6678 19.3641 68.6678 35.9312Z" fill="#2B70EB" stroke="#3232CE" stroke-width="7"/>
<path d="M67.3944 35.5122C67.3944 52.0793 53.9517 65.5147 37.3631 65.5147C20.7744 65.5147 7.33179 52.0793 7.33179 35.5122C7.33179 18.9452 20.7744 5.50977 37.3631 5.50977C53.9517 5.50977 67.3944 18.9452 67.3944 35.5122Z" fill="#3274F0" stroke="#3232CE" stroke-width="7"/>
<path d="M66.117 35.0845C66.117 51.6516 52.6744 65.087 36.0857 65.087C19.4971 65.087 6.05444 51.6516 6.05444 35.0845C6.05444 18.5174 19.4971 5.08203 36.0857 5.08203C52.6744 5.08203 66.117 18.5174 66.117 35.0845Z" fill="#3879F5" stroke="#3232CE" stroke-width="7"/>
<path d="M64.8399 34.6577C64.8399 51.2248 51.3973 64.6602 34.8086 64.6602C18.22 64.6602 4.77734 51.2248 4.77734 34.6577C4.77734 18.0907 18.22 4.65527 34.8086 4.65527C51.3973 4.65527 64.8399 18.0907 64.8399 34.6577Z" fill="#3F7EFA" stroke="#3232CE" stroke-width="7"/>
<path d="M63.5626 33.5025C63.5626 50.0695 50.1199 63.5049 33.5313 63.5049C16.9426 63.5049 3.5 50.0695 3.5 33.5025C3.5 16.9354 16.9426 3.5 33.5313 3.5C50.1199 3.5 63.5626 16.9354 63.5626 33.5025Z" fill="#4583FF" stroke="#3232CE" stroke-width="7"/>
<path d="M33.4059 25.4467L29.0416 28.7456H25.056C24.3984 28.7456 23.8604 29.2887 23.8604 29.9525V38.3608C23.8604 39.0246 24.3984 39.5677 25.056 39.5677H29.0416L33.4059 42.8667C34.203 43.4701 35.3189 42.9069 35.3189 41.9011V26.4122C35.3189 25.4064 34.1831 24.8432 33.4059 25.4467Z" fill="white"/>
<path d="M39.2648 27.4161C38.7268 26.873 37.83 26.873 37.292 27.4161C36.7539 27.9592 36.7539 28.8644 37.292 29.4076C39.8826 32.0226 39.8826 36.2669 37.292 38.8819C36.7539 39.4251 36.7539 40.3303 37.292 40.8734C37.571 41.155 37.9297 41.2757 38.2684 41.2757C38.6072 41.2757 38.9858 41.1349 39.2449 40.8533C42.9515 37.1721 42.9515 31.1375 39.2648 27.4161Z" fill="white"/>
<path d="M40.8196 24.2594C40.2815 24.8025 40.2815 25.7077 40.8196 26.2508C42.912 28.3629 44.0678 31.159 44.0678 34.1562C44.0678 37.1534 42.912 39.9494 40.8196 42.0615C40.2815 42.6047 40.2815 43.5099 40.8196 44.053C41.0985 44.3346 41.4573 44.4754 41.796 44.4754C42.1547 44.4754 42.5134 44.3346 42.7725 44.0731C45.3831 41.438 46.8378 37.9178 46.8378 34.1763C46.8378 30.4348 45.403 26.9347 42.7725 24.2795C42.2544 23.7162 41.3775 23.7162 40.8196 24.2594Z" fill="white"/>
</svg>
