<?xml version="1.0" encoding="utf-8"?>
<!-- Generator: Adobe Illustrator 23.0.4, SVG Export Plug-In . SVG Version: 6.00 Build 0)  -->
<svg version="1.1" id="Calque_1" xmlns="http://www.w3.org/2000/svg" xmlns:xlink="http://www.w3.org/1999/xlink" x="0px" y="0px"
	 viewBox="0 0 384 316" style="enable-background:new 0 0 384 316;" xml:space="preserve">
<style type="text/css">
	.st0{fill:#EF7014;}
</style>
<g>
	<g>
		<path class="st0" d="M206.1,266.4c-9.8,0-18.8-6.1-25.5-17.3c0,0-0.1,0-0.1,0c-1.6,0-4.1,0.4-6.5,0.9c-2.9,0.5-5.9,1.1-8.5,1.1
			c-7,0-8.8-4.2-9.2-6c-1.3-5.1,2-12,7.5-22.8c2.6-5,6.4-12.6,6.4-15.1v-25.3L141.8,162l28.4-23.2v-22.5c-0.4-2.5-6.6-10-10.3-14.6
			c-8.7-10.7-13.6-17-12.2-22.5c0.4-1.5,1.8-5,7.8-5c3.5,0,8.3,1.1,13.3,2.2c3.4,0.8,7.2,1.6,9.6,1.8c6.8-13.6,16.8-21.3,27.7-21.3
			c10.9,0,20.9,7.6,27.6,21.1c2-0.4,4.9-1.2,7.4-1.9c4.6-1.3,8.9-2.6,12-2.6c5.4,0,6.7,3.7,7,4.8c1.4,5.4-2.8,12.2-9.8,22.9
			c-3.1,4.7-8.3,12.7-8.3,15.1v22.6l28.4,23.2L242,181.9v25.3c0,2.3,3.9,9.8,6.5,14.7c5.5,10.6,8.9,17.3,7.7,22.3
			c-0.6,2.5-2.9,5.2-7.4,5.2c-2.8,0-6.2-1-9.8-2c-1.8-0.5-4-1.2-5.6-1.4C226.7,259,216.8,266.4,206.1,266.4z"/>
		<path d="M206.1,61.9c9.8,0,18.5,8,24.2,20.5c0.2,0.5,0.9,0.7,1.9,0.7c4.6,0,16.1-4.7,20.9-4.7c1.2,0,2,0.3,2.2,1
			c1.7,6.7-18.3,28.9-18.3,36.7v24.9l25.1,20.5L237,179.3v27.9c0,7.5,15.9,29.3,14.3,35.8c-0.2,1-1.2,1.3-2.5,1.3
			c-4.2,0-12.5-3.6-16.6-3.6c-1.1,0-1.9,0.3-2.3,1c-5.7,12.1-14.2,19.8-23.8,19.8h0c-8.5,0-16.3-6.1-21.8-15.9c-0.6-1-2-1.4-3.8-1.4
			c-4.2,0-10.7,1.9-15,1.9c-2.3,0-4-0.5-4.4-2.2c-1.7-6.7,14.1-28.9,14.1-36.7v-27.9l-25.1-17.6l25.1-20.5v-24.9
			c0-7.5-24.2-29.3-22.7-35.8c0.2-0.8,1.3-1.2,2.9-1.2c5.8,0,18.4,4.1,23.9,4.1c1.3,0,2.3-0.2,2.5-0.9
			C187.6,70,196.3,61.9,206.1,61.9L206.1,61.9 M206.1,51.9c-12,0-22.9,7.5-30.5,20.8c-1.9-0.4-4.1-0.9-5.8-1.2
			c-5.3-1.2-10.4-2.3-14.4-2.3c-7.7,0-11.6,4.6-12.6,8.8c-2,8.2,4.4,16,13.2,26.8c3,3.7,7.9,9.8,9.2,12.3v19.2L143.8,154l-10.2,8.4
			l10.8,7.6l20.8,14.6v22.4c-0.4,2.3-3.8,9-5.9,13.1c-6,11.8-9.6,19.4-7.9,26.3c0.6,2.3,3.3,9.8,14.1,9.8c3.1,0,6.3-0.6,9.4-1.1
			c1-0.2,2.1-0.4,3.1-0.5c7.5,11,17.3,17,28.1,17c11.6,0,22.3-7.1,29.9-19.8c0.6,0.2,1.2,0.3,1.7,0.5c3.8,1.1,7.6,2.2,11.2,2.2
			c7.4,0,11.2-4.9,12.2-9c1.6-6.7-2-14.2-8.1-25.8c-2.1-3.9-5.5-10.4-5.9-12.7v-22.4l20.8-14.6l10.8-7.6l-10.2-8.4L247,136.4v-19.7
			c0.8-2.5,5-8.9,7.5-12.9c7.2-11.1,12.4-19.1,10.4-26.8c-1-3.9-4.7-8.5-11.8-8.5c-3.9,0-8.5,1.4-13.4,2.8c-1,0.3-2.2,0.6-3.4,1
			C228.7,59.3,217.9,51.9,206.1,51.9L206.1,51.9z"/>
	</g>
	<g>
		<path class="st0" d="M201.4,265.1c-9.4,0-16-7-21.8-14.7c-0.3,0-0.8-0.1-1.6-0.1c-1.4,0-3,0.1-4.7,0.3c-1.9,0.2-3.9,0.3-5.9,0.3
			c-6.6,0-10.6-2.2-12-6.6c-1.5-4.9,1-11.4,3.9-18.8c1.7-4.4,4.1-10.5,3.8-12.8c-0.1-0.9-0.2-1.3,1.5-20c0.2-2.8,0.5-5.9,0.7-8
			l-22.7-20.9l18.9-22.7l3.8-22.1c-0.7-2.5-5.3-9.2-8.5-13.7c-7.4-10.7-11.3-16.6-10.3-21.3c1.4-6.4,9.2-6.4,12.6-6.4c1,0,2,0,3.1,0
			c1,0,1.9,0,2.8,0c1.6,0,2.5-0.1,3.1-0.1c5.4-11.4,16.8-16.8,26.1-18.2c1.8-2.4,4.3-3.7,7-3.7c9.3,0,17.9,6.5,23.6,17.8
			c1.7-0.1,4.1-0.5,6.4-0.8c3.4-0.5,6.8-1.1,9.9-1.1c6.8,0,9.1,3.1,9.9,5.7c1.5,5.1-1.8,11.4-5.7,18.7c-2,3.8-5.4,10.2-5.2,12.1
			c0.1,1.1,0.1,1.9-1.8,17.6c-0.4,2.9-0.7,6.1-1,8.1l22.6,23l-19,20.5l-3.9,24.1c0.3,2.3,3.3,9.2,5.3,13.9
			c4.7,10.8,7.4,17.1,6.4,21.4c-1.4,6.7-8.8,6.7-12.8,6.7c-1,0-2.5,0-3.4,0.1c-5.3,11.2-15.7,16.5-24.6,17.9
			C206.5,263.8,204,265.1,201.4,265.1z"/>
		<path d="M201.4,60.6c8.2,0,15.4,6.7,20.2,17.1c0.5,0.5,1.6,0.7,2.9,0.7c4.3,0,11.7-1.9,16.8-1.9c2.7,0,4.6,0.5,5.1,2.1
			c1.8,6.2-12.1,22.9-11.1,30.1c0.2,1.1-3,25.6-3,26.9l20.9,21.3l-16.7,18.1l-4.2,26.2c0,6.2,13.1,29.1,11.9,34.5
			c-1.1,5.3-13.5,0.5-15.4,4.9c-4.7,10.9-15.1,15.6-23.4,16.2c-0.9,2-2.4,3.3-4,3.3c-7.1,0-12.6-5.7-18.2-13.2
			c-0.9-1.2-2.8-1.5-5.2-1.5c-3.2,0-7.2,0.6-10.6,0.6c-3.5,0-6.4-0.6-7.2-3.1c-2-6.4,8.9-23.4,7.9-30.9c-0.2-1.1,2.3-28,2.3-29.3
			l-20.9-19.3l16.7-20l4.2-24.2c0-6.2-20-28.6-18.9-34c0.4-2.1,3.8-2.4,7.7-2.4c1.9,0,4,0.1,5.9,0.1c3.5,0,6.4-0.3,7.1-1.9
			c4.7-11.3,16.6-16.1,25.1-16.8C198.3,62,199.8,60.6,201.4,60.6 M201.4,50.6c-3.6,0-7,1.5-9.6,4.1c-9.4,1.9-20.3,7.4-26.6,17.9
			c0,0,0,0,0,0c-0.9,0-1.8,0-2.7,0c-1,0-2.1,0-3.2,0c-2.2,0-5,0.1-7.6,0.7c-7.5,1.9-9.4,7.4-9.9,9.6c-1.4,6.7,2.8,13.2,11.1,25.1
			c2.3,3.4,6.1,8.8,7.4,11.4l-3.3,19.4l-15,18l-6.1,7.3l7,6.5l17.4,16c-0.1,1.7-0.3,3.7-0.5,5.5c-1.6,18.5-1.6,19.5-1.5,21
			c-0.1,1.9-2.2,7.3-3.5,10.5c-3.1,8-6.1,15.5-4,22.1c1.2,3.8,4.9,10.2,16.7,10.2c2.1,0,4.3-0.2,6.3-0.3c1.2-0.1,2.4-0.2,3.4-0.2
			c6,7.7,13.6,14.7,24.3,14.7c3.6,0,6.9-1.4,9.5-4c9.1-1.9,19.1-7.3,25.1-17.6c0.1,0,0.2,0,0.3,0c2.3,0,4.8,0,7.4-0.6
			c5.4-1.3,9.2-5,10.2-10.1c1.2-5.8-1.5-12.3-6.8-24.4c-1.7-3.9-4.2-9.6-4.8-12l3.5-21.7l14.7-15.9l6.5-7l-6.7-6.8l-17.6-17.9
			c0.2-1.8,0.5-3.9,0.7-5.7c1.8-14.9,2-16.9,1.9-18.3c0.4-2,3-6.8,4.5-9.7c4.4-8.3,8.2-15.5,6.1-22.5c-0.8-2.8-3.9-9.3-14.7-9.3
			c-3.4,0-7.1,0.6-10.6,1.1c-0.9,0.1-1.9,0.3-2.8,0.4c-2.4-4.1-5.3-7.6-8.5-10.4C214,53.1,207.8,50.6,201.4,50.6L201.4,50.6z"/>
	</g>
	<g>
		<path class="st0" d="M196.7,263.8c-6.9,0-13.3-4.1-18-11.7c-1.3-0.3-3.8-0.3-5.6-0.4c-6.6-0.2-15.5-0.5-18.4-8.2
			c-1.6-4.5-0.6-9.9,0.4-15.6c0.7-3.8,1.4-7.8,1-10.3c-0.3-1.8,0.1-4.9,2.7-19.7c0.6-3.7,1.4-8,1.7-10.4l-17.3-21.7l9.5-22.2l7.9-22
			c-0.9-2.5-4.3-8.6-6.6-12.7c-6.5-11.6-9-16.3-8.3-20c1-5.4,5.6-7.7,8.9-9.4c1.1-0.6,3-1.6,3.4-2.1c4.4-11.5,19-14.2,27.3-15.6
			c2.8-4.7,6.9-7.3,11.3-7.3c7.8,0,14.8,5.2,19.6,14.4c0.5,0,1.3,0.1,2.3,0.1c1,0,2,0,3.1,0c1.2,0,2.5-0.1,3.7-0.1
			c4.7,0,14.3,0,16.9,7.6c1.5,4.4-0.1,9.6-1.7,15c-1,3.4-2.2,7.3-1.9,9.3c0.3,1.9-0.2,4.6-3.4,18c-0.8,3.4-1.9,7.9-2.4,10.3
			l17.3,22.7l-9.5,21.1l-7.9,23.2c0.5,2.4,2.7,8.7,4.2,13c4.2,12,5.8,17.2,5.2,20.5c-1,5.1-4.4,7.6-7,9.4c-1.3,1-2.5,1.8-2.8,2.6
			c-4.5,11.3-16.6,13.9-24.4,15.4C205,261.3,201.1,263.8,196.7,263.8z"/>
		<path d="M196.7,59.3c6.5,0,12.4,5.3,16.1,13.7c1.1,0.6,3.3,0.8,5.8,0.8c2.1,0,4.5-0.1,6.8-0.1c5.5,0,10.9,0.5,12.1,4.2
			c1.9,5.6-4.9,16.9-3.9,23.5c0.3,2.3-6.1,26.3-6.1,28.9l16.7,22l-8.4,18.6l-8.4,24.4c0,5,10.4,28.8,9.5,33.2
			c-1.1,5.7-7.6,6.3-9.5,11.1c-3.9,9.8-16,11.4-23,12.7c-1.9,4-4.7,6.6-7.9,6.6c-5.7,0-10.8-4.1-14.6-10.6c-4.6-3.1-20,1-22.7-6.4
			c-2.2-6,2.8-17.8,1.7-25c-0.4-2.3,4.7-28.2,4.7-30.8L149,165l8.4-19.6l8.4-23.5c0-5-15.9-27.8-15.1-32.2c1-5.5,10.2-5.9,12-10.6
			c3.9-10,18.8-11.7,25.9-13C190.5,62,193.4,59.3,196.7,59.3 M196.7,49.3c-5.5,0-10.6,2.8-14.3,7.8c-9.1,1.6-22.9,5-28.4,17
			c-0.5,0.3-1.1,0.6-1.6,0.8c-3.5,1.8-10.1,5.2-11.6,13c-1,5.6,2,11.2,8.8,23.4c1.8,3.2,4.4,7.7,5.6,10.4l-7.2,20.1l-8.2,19.3
			l-2.3,5.5l3.7,4.7l14.1,17.7c-0.4,2.4-0.9,5.6-1.4,8.2c-2.8,16.2-3.1,18.8-2.7,21.3c0.3,1.6-0.5,5.7-1,8.6
			c-1.1,6.1-2.3,12.5-0.2,18.3c1.3,3.6,4.5,8.4,12.3,10.4c3.6,0.9,7.3,1,10.6,1.2c0.9,0,2,0.1,2.9,0.1c5.5,7.6,13,11.9,20.9,11.9
			c5.4,0,10.5-2.8,14.1-7.6c8.3-1.7,20.7-5.2,25.9-17.5c0.3-0.3,0.9-0.7,1.3-1c2.9-2.1,7.6-5.5,8.9-12.5c0.9-4.6-0.7-9.7-5.4-23.1
			c-1.2-3.5-3-8.4-3.7-11.1l7.4-21.6l8.2-18.2l2.4-5.4l-3.6-4.7l-14.1-18.5c0.5-2.3,1.3-5.4,1.9-7.9c3.5-14.6,3.9-17.1,3.5-19.8
			c0-1.3,1.1-5,1.7-7.2c1.8-5.9,3.7-12.1,1.7-18c-3.7-11-16.7-11-21.6-11c-1.3,0-2.6,0-3.8,0.1c-0.8,0-1.6,0-2.3,0
			C213.6,54.5,205.6,49.3,196.7,49.3L196.7,49.3z"/>
	</g>
	<g>
		<path class="st0" d="M192,262.5c-5.5,0-10.4-3.1-14.2-8.7c-1.2-0.3-2.9-0.5-4.4-0.7c-6.8-0.9-16-2.2-19.4-10.4
			c-2.2-5.3-3.2-11.1-4.3-17.2c-0.2-1-0.3-2-0.5-3c-0.5-2.6,0.5-6.8,3.9-20.2c1.1-4.1,2.4-9.5,2.9-12l-12.4-22.5v-21.6l12.3-22.2
			c-0.8-2.5-3.1-7.9-4.8-11.6c-5.4-12.5-6.7-16-6.2-18.8c0.2-1.4,0.4-2.7,0.6-4c0.7-4.6,1.4-9.3,2.9-13.7
			c3.3-9.2,15.1-10.4,23.8-11.4c1.5-0.2,3.1-0.3,4.3-0.5c3.8-7,9.4-10.9,15.5-10.9c6.1,0,11.7,3.9,15.5,10.9
			c1.1,0.2,2.4,0.3,3.7,0.4c7.5,0.8,18.9,2,22.2,11c1.5,4.3,2.2,8.9,2.9,13.3c0.2,1.4,0.4,2.9,0.7,4.4c0.5,2.7-0.7,6.5-5,19
			c-1.3,3.8-3.2,9.2-3.8,11.7l12.3,22.4v21.6L228,190.3c0.5,2.4,1.9,7.8,3,11.9c3.4,13.1,4.4,17.3,4,19.8c-0.2,1.3-0.4,2.6-0.6,3.9
			c-0.7,4.8-1.5,9.7-3.2,14.3c-3.3,9-13.5,10.4-20.3,11.3c-1.2,0.2-2.5,0.3-3.6,0.5C203.5,258.7,198,262.5,192,262.5z"/>
		<path d="M192,58c4.9,0,9.3,4,12.1,10.3c5.7,1.8,21.5,0.3,24.6,8.8C230.5,82.2,231,88,232,94c0.6,3.4-9.1,26.9-9.1,30.8l12.6,22.7
			v19.1l-12.6,22.7c0,3.7,7.7,28.6,7.2,31.9c-1,6.1-1.6,12.1-3.5,17.3c-3.1,8.6-16.9,7.2-22.6,9.2c-2.8,6-7.1,9.9-11.9,9.9
			c-4.3,0-8.1-3-10.9-7.9c-5.6-2.3-19.1-0.7-22.5-8.8c-2.3-5.6-3.3-12.3-4.5-19.2c-0.6-3.4,7-28.4,7-32.3l-12.6-22.7v-19.1
			l12.6-22.7c0-3.7-11.9-27.1-11.3-30.4c1-6,1.5-11.8,3.3-16.9c3.1-8.6,21-7.3,26.8-9.2C182.7,62,187.1,58,192,58 M192,48
			c-7.3,0-13.9,4-18.6,11.3c-0.6,0.1-1.2,0.1-1.8,0.2c-9.4,1-23.6,2.6-27.9,14.7c-1.7,4.8-2.5,9.8-3.2,14.6c-0.2,1.3-0.4,2.6-0.6,4
			c-0.7,4.4,1,8.7,6.6,21.6c1.2,2.8,2.9,6.6,3.9,9.2l-10.6,19.1l-1.2,2.3v2.6v19.1v2.6l1.2,2.3l10.9,19.7c-0.6,2.7-1.7,6.9-2.5,9.9
			c-3.8,14.6-4.6,18.8-4,22.3c0.2,1,0.4,2,0.5,3c1.1,6.1,2.2,12.4,4.6,18.3c4.5,10.9,16.3,12.5,23.3,13.4c0.7,0.1,1.5,0.2,2.2,0.3
			c4.6,5.9,10.6,9.2,17.1,9.2c7.2,0,13.7-3.9,18.4-11c0.4-0.1,0.8-0.1,1.2-0.2c7.5-1,20-2.7,24.4-14.5c1.8-5,2.6-10.2,3.4-15.2
			c0.2-1.3,0.4-2.5,0.6-3.8c0.6-3.5-0.3-7.5-4.1-21.9c-0.8-3-1.9-7.2-2.5-9.9l10.9-19.7l1.2-2.3v-2.6v-19.1v-2.6l-1.2-2.3
			l-10.7-19.4c0.8-2.6,2.2-6.6,3.2-9.5c4.8-13.7,5.9-17.6,5.2-21.5c-0.2-1.4-0.5-2.9-0.7-4.3c-0.7-4.7-1.4-9.6-3.1-14.3
			c-4.4-12-18.1-13.5-26.4-14.3c-0.4,0-0.8-0.1-1.2-0.1C205.8,52.1,199.3,48,192,48L192,48z"/>
	</g>
	<g>
		<path class="st0" d="M187.3,261.2c-3.9,0-7.6-2.1-10.3-5.8c-0.4-0.1-0.8-0.2-1.2-0.2c-7.2-1.4-18-3.6-22.5-13.3
			c-0.6-1.3-2-2.4-3.6-3.7c-2.7-2.2-6.4-5.3-7.5-10.8c-0.7-3.4,0.9-8.8,5.1-21c1.5-4.3,3.7-10.7,4.1-13.2l-7.9-23.2l-9.5-21.1
			l17.2-22.6c-0.6-2.5-1.9-6.9-3-10.4c-3.9-13.3-4.5-15.7-4.2-17.7c0.3-1.8-1.3-5.9-2.5-9c-2.1-5.4-4.1-10.5-2.6-15.1
			c2.6-8,13.6-8,20.9-8l3.1,0c1,0,3.4,0,4.9-0.2c4.8-9.2,11.9-14.5,19.6-14.5c4.5,0,8.5,2.6,11.3,7.3c8,1.3,21.4,4,25.9,15.4
			c0.2,0.5,1.9,1.5,2.9,2c2.8,1.6,6.9,4,7.9,9.1c0.7,3.6-1.4,8.7-6.6,20.3c-1.9,4.2-4.7,10.4-5.4,12.9l7.9,22.2l9.5,22.2l-17.3,21.7
			c0.4,2.4,1.1,6.8,1.8,10.5c2.6,14.5,3,17.6,2.7,19.3c-0.3,2.2,0.5,6,1.3,9.5c1.2,5.4,2.3,10.5,0.9,14.8c-2.6,8-12.2,8.1-18.6,8.1
			c-1.5,0-3.5,0-4.9,0.2C201.9,256.1,194.9,261.2,187.3,261.2z"/>
		<path d="M187.3,56.7c3.3,0,6.2,2.7,8.1,6.8c7.1,1.2,20.6,2.8,24.5,12.7c1.8,4.6,9.5,4.9,10.6,10.3c0.9,4.5-12.2,27.6-12.2,32.8
			l8.4,23.5l8.4,19.6l-16.7,21c0,2.5,5.1,28.3,4.8,30.5c-1,6.6,4.3,17.8,2.4,23.5c-2.4,7.4-17.7,3-22.2,5.7
			c-3.8,8-9.5,13.2-15.9,13.2c-2.8,0-5.4-2-7.3-5.3c-6.6-1.6-18.2-2.5-22.3-11.2c-2.5-5.3-9.4-6.7-10.7-13.3
			c-0.9-4.5,9.4-28.5,9.4-33.8l-8.4-24.4l-8.4-18.6l16.7-22c0-2.5-7.9-26.4-7.6-28.6c1-6.5-7.1-17.6-5.3-23.2
			c1.4-4.3,9.1-4.5,16.1-4.5c1.1,0,2.1,0,3.1,0c3.8,0,7-0.1,8.4-0.9C174.9,62.1,180.7,56.7,187.3,56.7 M187.3,46.7
			c-8.9,0-17,5.3-22.6,14.6c-0.6,0-1.2,0-1.9,0l-1.5,0l-1.6,0c-7.6,0-21.9,0-25.6,11.4c-2,6.3,0.5,12.7,2.7,18.4
			c0.8,2,2.1,5.4,2.2,6.7c-0.4,3,0.4,6,4.4,19.6c0.7,2.4,1.6,5.5,2.3,7.9l-13.9,18.3l-3.6,4.7l2.4,5.4l8.2,18.2l7.4,21.6
			c-0.7,2.7-2.4,7.7-3.6,11.3c-4.6,13.4-6.2,18.9-5.3,23.6c1.5,7.2,6.2,11.1,9.3,13.6c0.8,0.6,1.9,1.6,2.2,2
			c5.4,11.6,17.8,14.3,25.5,15.9c3.6,4.1,8.2,6.3,13.1,6.3c8.8,0,16.7-5.1,22.4-14.2c0.7,0,1.3,0,1.9,0c3.3,0,7.1,0,10.7-0.9
			c8.5-2,11.5-7.5,12.6-10.6c1.9-5.6,0.5-11.6-0.8-17.5c-0.5-2.4-1.4-6.4-1.2-7.7c0.4-2.5,0-5-2.8-20.9c-0.5-2.6-1-5.8-1.4-8.2
			l14.1-17.7l3.7-4.7l-2.3-5.5l-8.2-19.3l-7.3-20.5c1-2.7,3.1-7.4,4.6-10.8c5.4-12,8-18,7-23.3c-1.4-7.4-7.2-10.7-10.4-12.5
			c-0.4-0.2-0.8-0.5-1.2-0.7C223.2,59.5,210,56,201.5,54.5C197.8,49.5,192.8,46.7,187.3,46.7L187.3,46.7z"/>
	</g>
	<g>
		<path class="st0" d="M182.5,259.9c-2.4,0-4.6-1.1-6.4-3c-6.4-1-17.6-4.4-23.6-15.6c-0.8-0.4-3.1-0.6-4.4-0.8
			c-4.3-0.5-11.6-1.4-13.1-8.2c-1-4.4,1.6-10.8,6.3-21.9c2-4.7,5-11.8,5.3-14.2l-3.9-24.2l-19-20.5l22.6-22.9
			c-0.3-2.2-0.8-5.6-1.3-8.5c-2.4-15.8-2.4-16-2.2-17.1c0-1.9-4-7.9-6.4-11.5c-5-7.5-9-13.5-7.4-18.7c1.1-3.9,4.8-5.9,11-5.9
			c3.2,0,6.9,0.5,10.5,0.9c3,0.4,5.9,0.7,7.9,0.7c0.2,0,0.4,0,0.5,0c5.9-8.7,12.8-18.1,23.5-18.1c2.7,0,5.2,1.4,7,3.7
			c9,1.4,19.9,6.7,25.3,18c0.3,0,0.7,0,1.2,0c1,0,2-0.1,3.2-0.1c1.2-0.1,2.5-0.1,3.7-0.1c6.1,0,9.6,2.1,10.5,6.1
			c1,4.6-2.3,10.8-8.2,21.5c-2.6,4.7-6.4,11.6-6.9,14l3.8,22.3l18.9,22.7l-22.6,20.9c0.2,2.1,0.4,5.2,0.7,8.1
			c1.6,18.5,1.6,18.8,1.5,19.7c-0.3,2.1,2.3,8.1,4,12.1c3,7.2,5.7,13.5,4.3,18.3c-0.7,2.3-2.8,6.1-10,6.1c-2.4,0-5.1-0.4-7.6-0.8
			c-2-0.3-4.1-0.6-5.5-0.6c0,0-0.1,0-0.1,0C199.1,252.1,192.6,259.9,182.5,259.9z"/>
		<path d="M182.5,55.4c1.6,0,3.1,1.3,4,3.4c8.4,0.6,19.6,5.4,24.3,16.6c0.6,1.4,2.7,1.7,5.2,1.7c2.2,0,4.7-0.2,6.9-0.2
			c2.9,0,5.2,0.4,5.6,2.2c1.2,5.6-15.2,28.2-15.2,34.7l4.2,24.2l16.7,20l-20.9,19.3c0,1.2,2.5,28.1,2.4,29.2
			c-0.9,7,10.1,23.6,8.4,29.6c-0.5,1.9-2.6,2.5-5.2,2.5c-4,0-9.5-1.4-13.1-1.4c-1.6,0-2.9,0.3-3.5,1.1c-6.3,9.2-11.9,16.5-19.9,16.5
			c-1.4,0-2.7-1-3.6-2.6c-7.6-0.8-17.3-4.2-22.1-13.5c-2.6-5-15.5-1.1-16.9-7.5c-1.3-5.6,11.7-28.7,11.7-35.2l-4.2-26.2l-16.7-18.1
			l20.9-21.3c0-1.2-3.9-25.6-3.8-26.8c0.9-6.9-15.7-23.5-14-29.5c0.5-1.7,2.9-2.3,6.2-2.3c5.6,0,13.6,1.6,18.4,1.6
			c1.9,0,3.4-0.3,3.9-1C168.8,63.1,174.4,55.4,182.5,55.4 M182.5,45.4c-12.2,0-19.9,9.3-26.1,18c-1.6-0.1-3.4-0.4-5.3-0.6
			c-3.7-0.5-7.6-0.9-11.1-0.9c-11.4,0-14.8,6-15.8,9.5c-2.2,7.5,2.6,14.6,8.1,22.9c1.8,2.7,4.8,7.2,5.5,9.2c0,1.5,0.3,4.3,2.3,17.4
			c0.3,2,0.6,4.2,0.9,6l-17.5,17.8l-6.7,6.8l6.5,7l14.7,15.9l3.5,21.8c-0.6,2.5-3.1,8.3-4.8,12.3c-5.3,12.3-7.9,19.1-6.6,24.9
			c0.6,2.8,2.7,7.9,9.4,10.4c2.8,1,5.5,1.4,8,1.7c0.5,0.1,1.2,0.1,1.8,0.2c5.2,8.2,13.8,13.8,24.5,15.9c2.5,2.1,5.5,3.3,8.7,3.3
			c12.2,0,20-9.2,25.7-17.4c0.8,0.1,1.6,0.2,2.3,0.3c2.6,0.4,5.6,0.8,8.4,0.8c10.8,0,14-6.8,14.8-9.7c1.9-6.5-1-13.5-4.4-21.6
			c-1.3-3-3.4-8-3.6-9.9c0.2-1.3,0.1-2.9-1.5-20.5c-0.2-1.9-0.3-3.9-0.5-5.6l17.4-16l7-6.5l-6.1-7.3l-15-18l-3.4-19.8
			c1-2.6,4.1-8.4,6.1-11.9c6.7-12.1,10.1-18.7,8.7-25c-0.8-3.8-3.9-10.1-15.4-10.1c-1.4,0-2.7,0.1-4,0.1c-0.4,0-0.8,0-1.2,0.1
			c-6.2-10.4-16.6-15.7-25.7-17.6C189.6,46.9,186.2,45.4,182.5,45.4L182.5,45.4z"/>
	</g>
	<g>
		<path class="st0" d="M177.8,258.6c-9.8,0-18.8-6.1-25.5-17.3c0,0-0.1,0-0.1,0c-1.6,0-4.1,0.4-6.5,0.9c-2.9,0.5-5.9,1.1-8.5,1.1
			c-7,0-8.8-4.2-9.2-6c-1.3-5.1,2-12,7.5-22.8c2.6-5,6.4-12.6,6.4-15.1v-25.3l-28.4-19.9l28.4-23.2v-22.5
			c-0.4-2.5-6.6-10.1-10.3-14.6c-8.7-10.7-13.6-17-12.2-22.5c0.4-1.5,1.8-5,7.8-5c3.5,0,8.3,1.1,13.3,2.2c3.4,0.8,7.2,1.6,9.6,1.8
			c6.8-13.6,16.8-21.3,27.7-21.3c10.9,0,20.9,7.6,27.6,21.1c2-0.4,4.9-1.2,7.4-1.9c4.6-1.3,8.9-2.6,12-2.6c5.4,0,6.7,3.7,7,4.8
			c1.4,5.4-2.8,12.2-9.8,22.9c-3.1,4.8-8.3,12.7-8.3,15.1V131l28.4,23.2l-28.4,19.9v25.3c0,2.3,3.9,9.8,6.5,14.7
			c5.5,10.6,8.9,17.3,7.7,22.3c-0.6,2.5-2.9,5.2-7.4,5.2c-2.8,0-6.2-1-9.8-2c-1.8-0.5-4-1.2-5.6-1.4
			C198.4,251.2,188.6,258.6,177.8,258.6z"/>
		<path d="M177.8,54.1c9.8,0,18.5,8,24.2,20.5c0.2,0.5,0.9,0.7,1.9,0.7c4.6,0,16.1-4.7,20.9-4.7c1.2,0,2,0.3,2.2,1
			c1.7,6.7-18.3,28.9-18.3,36.7v24.9l25.1,20.5l-25.1,17.6v27.9c0,7.5,15.9,29.3,14.3,35.8c-0.2,1-1.2,1.3-2.5,1.3
			c-4.2,0-12.5-3.6-16.6-3.6c-1.1,0-1.9,0.3-2.3,1c-5.7,12.1-14.2,19.8-23.8,19.8h0c-8.5,0-16.3-6.1-21.8-15.9c-0.6-1-2-1.4-3.8-1.4
			c-4.2,0-10.7,1.9-15,1.9c-2.3,0-4-0.5-4.4-2.2c-1.7-6.7,14.1-28.9,14.1-36.7v-27.9l-25.1-17.6l25.1-20.5v-24.9
			c0-7.5-24.2-29.3-22.7-35.8c0.2-0.8,1.3-1.2,2.9-1.2c5.8,0,18.4,4.1,23.9,4.1c1.3,0,2.3-0.2,2.5-0.9
			C159.3,62.1,168,54.1,177.8,54.1L177.8,54.1 M177.8,44.1c-12,0-22.9,7.5-30.5,20.8c-1.9-0.4-4.1-0.9-5.8-1.2
			c-5.3-1.2-10.4-2.3-14.4-2.3c-7.7,0-11.6,4.6-12.6,8.8c-2,8.2,4.4,16,13.2,26.8c3,3.7,7.9,9.8,9.2,12.3v19.2l-21.4,17.5l-10.2,8.4
			l10.8,7.6l20.8,14.6v22.4c-0.4,2.3-3.8,9-5.9,13.1c-6,11.8-9.6,19.4-7.9,26.3c0.6,2.3,3.3,9.8,14.1,9.8c3.1,0,6.3-0.6,9.4-1.1
			c1-0.2,2.1-0.4,3.1-0.5c7.5,11,17.3,17,28.1,17c11.6,0,22.3-7.1,29.9-19.8c0.6,0.2,1.2,0.3,1.7,0.5c3.8,1.1,7.6,2.2,11.2,2.2
			c7.4,0,11.2-4.9,12.2-9c1.6-6.7-2-14.2-8.1-25.8c-2.1-3.9-5.5-10.4-5.9-12.7v-22.4l20.8-14.6l10.8-7.6l-10.2-8.4l-21.4-17.5v-19.7
			c0.8-2.5,5-8.9,7.5-12.9c7.2-11.1,12.4-19.1,10.4-26.8c-1-3.9-4.7-8.5-11.8-8.5c-3.9,0-8.5,1.4-13.4,2.8c-1,0.3-2.2,0.6-3.4,1
			C200.4,51.4,189.7,44.1,177.8,44.1L177.8,44.1z"/>
	</g>
</g>
</svg>
