<svg width="76" height="71" viewBox="0 0 76 71" fill="none" xmlns="http://www.w3.org/2000/svg">
<path d="M72.4999 37.1948C72.4999 53.7626 59.0574 67.1983 42.4693 67.1983C25.8812 67.1983 12.4387 53.7626 12.4387 37.1948C12.4387 20.6271 25.8812 7.19141 42.4693 7.19141C59.0574 7.19141 72.4999 20.6271 72.4999 37.1948Z" fill="#1861DC" stroke="#3232CE" stroke-width="7"/>
<path d="M71.2218 36.773C71.2218 53.3407 57.7793 66.7764 41.1912 66.7764C24.6031 66.7764 11.1606 53.3407 11.1606 36.773C11.1606 20.2052 24.6031 6.76953 41.1912 6.76953C57.7793 6.76953 71.2218 20.2052 71.2218 36.773Z" fill="#1E66E1" stroke="#3232CE" stroke-width="7"/>
<path d="M69.9435 36.3521C69.9435 52.9198 56.501 66.3555 39.9129 66.3555C23.3248 66.3555 9.88232 52.9198 9.88232 36.3521C9.88232 19.7843 23.3248 6.34863 39.9129 6.34863C56.501 6.34863 69.9435 19.7843 69.9435 36.3521Z" fill="#256BE6" stroke="#3232CE" stroke-width="7"/>
<path d="M68.6657 35.9321C68.6657 52.4999 55.2232 65.9356 38.6351 65.9356C22.047 65.9356 8.60449 52.4999 8.60449 35.9321C8.60449 19.3644 22.047 5.92871 38.6351 5.92871C55.2232 5.92871 68.6657 19.3644 68.6657 35.9321Z" fill="#2B70EB" stroke="#3232CE" stroke-width="7"/>
<path d="M67.3952 35.5112C67.3952 52.079 53.9527 65.5147 37.3646 65.5147C20.7765 65.5147 7.33398 52.079 7.33398 35.5112C7.33398 18.9435 20.7765 5.50781 37.3646 5.50781C53.9527 5.50781 67.3952 18.9435 67.3952 35.5112Z" fill="#3274F0" stroke="#3232CE" stroke-width="7"/>
<path d="M66.1171 35.0835C66.1171 51.6513 52.6746 65.0869 36.0865 65.0869C19.4984 65.0869 6.05591 51.6513 6.05591 35.0835C6.05591 18.5157 19.4984 5.08008 36.0865 5.08008C52.6746 5.08008 66.1171 18.5157 66.1171 35.0835Z" fill="#3879F5" stroke="#3232CE" stroke-width="7"/>
<path d="M64.8393 34.6626C64.8393 51.2304 51.3968 64.666 34.8087 64.666C18.2206 64.666 4.77808 51.2304 4.77808 34.6626C4.77808 18.0948 18.2206 4.65918 34.8087 4.65918C51.3968 4.65918 64.8393 18.0948 64.8393 34.6626Z" fill="#3F7EFA" stroke="#3232CE" stroke-width="7"/>
<path d="M63.5612 33.5034C63.5612 50.0712 50.1187 63.5069 33.5306 63.5069C16.9425 63.5069 3.5 50.0712 3.5 33.5034C3.5 16.9357 16.9425 3.5 33.5306 3.5C50.1187 3.5 63.5612 16.9357 63.5612 33.5034Z" fill="#4583FF" stroke="#3232CE" stroke-width="7"/>
<path d="M37.5251 38.6787H37.1926V29.1987C37.1926 28.1199 36.2949 27.2373 35.1976 27.2373H34.6989H33.2026H31.0414C29.9441 27.2373 28.8801 28.1199 28.8801 29.1987V31.1601C28.8801 32.2388 29.9441 33.1214 31.0414 33.1214H31.2076V42.6014C31.2076 43.6802 32.1054 44.5628 33.2026 44.5628H33.8676H35.1976H37.5251C38.6224 44.5628 39.5201 43.6802 39.5201 42.6014V40.64C39.5201 39.5613 38.6224 38.6787 37.5251 38.6787Z" fill="white"/>
<path d="M34.2003 25.4388C35.853 25.4388 37.1928 24.1216 37.1928 22.4967C37.1928 20.8719 35.853 19.5547 34.2003 19.5547C32.5476 19.5547 31.2078 20.8719 31.2078 22.4967C31.2078 24.1216 32.5476 25.4388 34.2003 25.4388Z" fill="white"/>
</svg>
