<?xml version="1.0" encoding="utf-8"?>
<!-- Generator: Adobe Illustrator 23.0.4, SVG Export Plug-In . SVG Version: 6.00 Build 0)  -->
<svg version="1.1" id="Calque_1" xmlns="http://www.w3.org/2000/svg" xmlns:xlink="http://www.w3.org/1999/xlink" x="0px" y="0px"
	 viewBox="0 0 298 228" style="enable-background:new 0 0 298 228;" xml:space="preserve">
<style type="text/css">
	.st0{fill:#FFFFFF;}
</style>
<g>
	<g>
		<g>
			<path class="st0" d="M77.4,129.5c-4.1-4.1-6.4-9.6-6.4-15.5c0-5.9,2.3-11.4,6.4-15.5c4.1-4.1,9.6-6.4,15.5-6.4
				c5.9,0,11.4,2.3,15.5,6.4l28.2,28.2l78.2-78.2c4.1-4.1,9.6-6.4,15.5-6.4c5.9,0,11.4,2.3,15.5,6.4c4.1,4.1,6.4,9.6,6.4,15.5
				c0,5.9-2.3,11.4-6.4,15.5L136.6,188.7L77.4,129.5z"/>
			<path d="M230.3,47.1c4.3,0,8.7,1.7,12,5c6.6,6.6,6.6,17.3,0,23.9l-81.7,81.7l-23.9,23.9l-23.9-23.9l-31.7-31.7
				c-6.6-6.6-6.6-17.3,0-23.9c3.3-3.3,7.6-5,12-5s8.7,1.7,12,5l31.7,31.7L218.3,52C221.6,48.7,225.9,47.1,230.3,47.1 M230.3,37.1
				c-7.2,0-13.9,2.8-19,7.9l-74.7,74.7L111.9,95c-5.1-5.1-11.8-7.9-19-7.9c-7.2,0-13.9,2.8-19,7.9c-5.1,5.1-7.9,11.8-7.9,19
				c0,7.2,2.8,13.9,7.9,19l31.7,31.7l23.9,23.9l7.1,7.1l7.1-7.1l23.9-23.9L249.3,83c5.1-5.1,7.9-11.8,7.9-19c0-7.2-2.8-13.9-7.9-19
				C244.2,39.9,237.5,37.1,230.3,37.1L230.3,37.1z"/>
		</g>
	</g>
	<g>
		<path class="st0" d="M68.6,127.7c-4.1-4.1-6.4-9.6-6.4-15.5c0-5.9,2.3-11.4,6.4-15.5c4.1-4.1,9.6-6.4,15.5-6.4s11.4,2.3,15.5,6.4
			l28.2,28.2L206,46.7c4.1-4.1,9.6-6.4,15.5-6.4s11.4,2.3,15.5,6.4c4.1,4.1,6.4,9.6,6.4,15.5c0,5.9-2.3,11.4-6.4,15.5L127.8,186.9
			L68.6,127.7z"/>
		<path d="M221.5,45.3c4.3,0,8.7,1.7,12,5c6.6,6.6,6.6,17.3,0,23.9l-81.7,81.7l-23.9,23.9l-23.9-23.9l-31.7-31.7
			c-6.6-6.6-6.6-17.3,0-23.9c3.3-3.3,7.6-5,12-5c4.3,0,8.7,1.7,12,5l31.7,31.7l81.7-81.7C212.9,46.9,217.2,45.3,221.5,45.3
			 M221.5,35.3c-7.2,0-13.9,2.8-19,7.9l-74.7,74.7l-24.7-24.7c-5.1-5.1-11.8-7.9-19-7.9s-13.9,2.8-19,7.9c-5.1,5.1-7.9,11.8-7.9,19
			c0,7.2,2.8,13.9,7.9,19l31.7,31.7l23.9,23.9l7.1,7.1l7.1-7.1l23.9-23.9l81.7-81.7c5.1-5.1,7.9-11.8,7.9-19c0-7.2-2.8-13.9-7.9-19
			C235.5,38.1,228.7,35.3,221.5,35.3L221.5,35.3z"/>
	</g>
	<g>
		<path class="st0" d="M59.9,125.9c-4.1-4.1-6.4-9.6-6.4-15.5c0-5.9,2.3-11.4,6.4-15.5c4.1-4.1,9.6-6.4,15.5-6.4
			c5.9,0,11.4,2.3,15.5,6.4l28.2,28.2l78.2-78.2c4.1-4.1,9.6-6.4,15.5-6.4c5.9,0,11.4,2.3,15.5,6.4c4.1,4.1,6.4,9.6,6.4,15.5
			c0,5.9-2.3,11.4-6.4,15.5L119.1,185.1L59.9,125.9z"/>
		<path d="M212.8,43.5c4.3,0,8.7,1.7,12,5c6.6,6.6,6.6,17.3,0,23.9L143,154.1L119.1,178l-23.9-23.9l-31.7-31.7
			c-6.6-6.6-6.6-17.3,0-23.9c3.3-3.3,7.6-5,12-5s8.7,1.7,12,5l31.7,31.7l81.7-81.7C204.1,45.1,208.5,43.5,212.8,43.5 M212.8,33.5
			c-7.2,0-13.9,2.8-19,7.9L119.1,116L94.4,91.3c-5.1-5.1-11.8-7.9-19-7.9s-13.9,2.8-19,7.9c-5.1,5.1-7.9,11.8-7.9,19
			c0,7.2,2.8,13.9,7.9,19l31.7,31.7l23.9,23.9l7.1,7.1l7.1-7.1l23.9-23.9l81.7-81.7c5.1-5.1,7.9-11.8,7.9-19c0-7.2-2.8-13.9-7.9-19
			C226.7,36.3,220,33.5,212.8,33.5L212.8,33.5z"/>
	</g>
	<g>
		<g>
			<path class="st0" d="M51.2,124.1c-4.1-4.1-6.4-9.6-6.4-15.5c0-5.9,2.3-11.4,6.4-15.5c4.1-4.1,9.6-6.4,15.5-6.4s11.4,2.3,15.5,6.4
				l28.2,28.2l78.2-78.2c4.1-4.1,9.6-6.4,15.5-6.4c5.9,0,11.4,2.3,15.5,6.4c4.1,4.1,6.4,9.6,6.4,15.5c0,5.9-2.3,11.4-6.4,15.5
				L110.4,183.2L51.2,124.1z"/>
			<path d="M204.1,41.7c4.3,0,8.7,1.7,12,5c6.6,6.6,6.6,17.3,0,23.9l-81.7,81.7l-23.9,23.9l-23.9-23.9l-31.7-31.7
				c-6.6-6.6-6.6-17.3,0-23.9c3.3-3.3,7.6-5,12-5s8.7,1.7,12,5l31.7,31.7l81.7-81.7C195.4,43.3,199.7,41.7,204.1,41.7 M204.1,31.7
				c-7.2,0-13.9,2.8-19,7.9l-74.7,74.7L85.7,89.5c-5.1-5.1-11.8-7.9-19-7.9s-13.9,2.8-19,7.9c-5.1,5.1-7.9,11.8-7.9,19
				c0,7.2,2.8,13.9,7.9,19l31.7,31.7l23.9,23.9l7.1,7.1l7.1-7.1l23.9-23.9l81.7-81.7c5.1-5.1,7.9-11.8,7.9-19c0-7.2-2.8-13.9-7.9-19
				C218,34.5,211.3,31.7,204.1,31.7L204.1,31.7z"/>
		</g>
	</g>
</g>
</svg>
